<svg width="60" height="60" viewBox="0 0 60 60" fill="none" xmlns="http://www.w3.org/2000/svg">
<g clip-path="url(#clip0_1_6739)">
<path d="M59.5 30C59.5 46.2924 46.2924 59.5 30 59.5C13.7076 59.5 0.5 46.2924 0.5 30C0.5 13.7076 13.7076 0.5 30 0.5C46.2924 0.5 59.5 13.7076 59.5 30Z" fill="#BFD1FF" stroke="#2D62EA" stroke-miterlimit="10"/>
<path d="M17.3008 31C19.5099 31 21.3008 28.7614 21.3008 26C21.3008 23.2386 19.5099 21 17.3008 21C15.0916 21 13.3008 23.2386 13.3008 26C13.3008 28.7614 15.0916 31 17.3008 31Z" fill="#2D62EA"/>
<path d="M42.5586 31C44.7677 31 46.5586 28.7614 46.5586 26C46.5586 23.2386 44.7677 21 42.5586 21C40.3495 21 38.5586 23.2386 38.5586 26C38.5586 28.7614 40.3495 31 42.5586 31Z" fill="#2D62EA"/>
<path fill-rule="evenodd" clip-rule="evenodd" d="M22.4251 41.9316C20.3506 43.8224 19.0195 46.3048 19.0195 48.7308C19.0195 49.0069 18.7957 49.2308 18.5195 49.2308C18.2434 49.2308 18.0195 49.0069 18.0195 48.7308C18.0195 45.9468 19.5335 43.2142 21.7515 41.1925C23.9727 39.1679 26.9586 37.8008 29.9995 37.8008C33.0405 37.8008 36.0263 39.1679 38.2476 41.1925C40.4656 43.2142 41.9795 45.9468 41.9795 48.7308C41.9795 49.0069 41.7557 49.2308 41.4795 49.2308C41.2034 49.2308 40.9795 49.0069 40.9795 48.7308C40.9795 46.3048 39.6485 43.8224 37.574 41.9316C35.5027 40.0437 32.7486 38.8008 29.9995 38.8008C27.2505 38.8008 24.4963 40.0437 22.4251 41.9316Z" fill="#2D62EA"/>
<path fill-rule="evenodd" clip-rule="evenodd" d="M39.5 16.2109C39.7761 16.2109 40 16.4348 40 16.7109C40 17.2054 40.225 17.5523 40.6359 17.8004C41.072 18.0636 41.7208 18.2109 42.5 18.2109C43.2792 18.2109 43.928 18.0636 44.3641 17.8004C44.775 17.5523 45 17.2054 45 16.7109C45 16.4348 45.2239 16.2109 45.5 16.2109C45.7761 16.2109 46 16.4348 46 16.7109C46 17.5965 45.555 18.2495 44.8809 18.6565C44.232 19.0483 43.3808 19.2109 42.5 19.2109C41.6192 19.2109 40.768 19.0483 40.1191 18.6565C39.445 18.2495 39 17.5965 39 16.7109C39 16.4348 39.2239 16.2109 39.5 16.2109Z" fill="#2D62EA"/>
<path fill-rule="evenodd" clip-rule="evenodd" d="M14.5 16.2109C14.7761 16.2109 15 16.4348 15 16.7109C15 17.2054 15.225 17.5523 15.6359 17.8004C16.072 18.0636 16.7208 18.2109 17.5 18.2109C18.2792 18.2109 18.928 18.0636 19.3641 17.8004C19.775 17.5523 20 17.2054 20 16.7109C20 16.4348 20.2239 16.2109 20.5 16.2109C20.7761 16.2109 21 16.4348 21 16.7109C21 17.5965 20.555 18.2495 19.8809 18.6565C19.232 19.0483 18.3808 19.2109 17.5 19.2109C16.6192 19.2109 15.768 19.0483 15.1191 18.6565C14.445 18.2495 14 17.5965 14 16.7109C14 16.4348 14.2239 16.2109 14.5 16.2109Z" fill="#2D62EA"/>
</g>
<defs>
<clipPath id="clip0_1_6739">
<rect width="60" height="60" fill="white"/>
</clipPath>
</defs>
</svg>
