<svg width="60" height="60" viewBox="0 0 60 60" fill="none" xmlns="http://www.w3.org/2000/svg">
<g clip-path="url(#clip0_1_6737)">
<path d="M59.5 30C59.5 46.2924 46.2924 59.5 30 59.5C13.7076 59.5 0.5 46.2924 0.5 30C0.5 13.7076 13.7076 0.5 30 0.5C46.2924 0.5 59.5 13.7076 59.5 30Z" fill="#BFD1FF" stroke="#2D62EA" stroke-miterlimit="10"/>
<path d="M17.3008 31C19.5099 31 21.3008 28.7614 21.3008 26C21.3008 23.2386 19.5099 21 17.3008 21C15.0916 21 13.3008 23.2386 13.3008 26C13.3008 28.7614 15.0916 31 17.3008 31Z" fill="#2D62EA"/>
<path d="M42.5586 31C44.7677 31 46.5586 28.7614 46.5586 26C46.5586 23.2386 44.7677 21 42.5586 21C40.3495 21 38.5586 23.2386 38.5586 26C38.5586 28.7614 40.3495 31 42.5586 31Z" fill="#2D62EA"/>
<path fill-rule="evenodd" clip-rule="evenodd" d="M18.5195 37.8008C18.7957 37.8008 19.0195 38.0246 19.0195 38.3008C19.0195 40.7268 20.3506 43.2092 22.4251 45.1C24.4963 46.9879 27.2505 48.2308 29.9995 48.2308C32.7486 48.2308 35.5027 46.9879 37.574 45.1C39.6485 43.2092 40.9795 40.7268 40.9795 38.3008C40.9795 38.0246 41.2034 37.8008 41.4795 37.8008C41.7557 37.8008 41.9795 38.0246 41.9795 38.3008C41.9795 41.0848 40.4656 43.8174 38.2476 45.8391C36.0263 47.8637 33.0405 49.2308 29.9995 49.2308C26.9586 49.2308 23.9727 47.8637 21.7515 45.8391C19.5335 43.8174 18.0195 41.0848 18.0195 38.3008C18.0195 38.0246 18.2434 37.8008 18.5195 37.8008Z" fill="#2D62EA"/>
<path fill-rule="evenodd" clip-rule="evenodd" d="M15.1191 16.7654C15.768 16.3736 16.6192 16.2109 17.5 16.2109C18.3808 16.2109 19.232 16.3736 19.8809 16.7654C20.555 17.1723 21 17.8254 21 18.7109C21 18.9871 20.7761 19.2109 20.5 19.2109C20.2239 19.2109 20 18.9871 20 18.7109C20 18.2165 19.775 17.8695 19.3641 17.6215C18.928 17.3583 18.2792 17.2109 17.5 17.2109C16.7208 17.2109 16.072 17.3583 15.6359 17.6215C15.225 17.8695 15 18.2165 15 18.7109C15 18.9871 14.7761 19.2109 14.5 19.2109C14.2239 19.2109 14 18.9871 14 18.7109C14 17.8254 14.445 17.1723 15.1191 16.7654Z" fill="#2D62EA"/>
<path fill-rule="evenodd" clip-rule="evenodd" d="M40.1191 16.7654C40.768 16.3736 41.6192 16.2109 42.5 16.2109C43.3808 16.2109 44.232 16.3736 44.8809 16.7654C45.555 17.1723 46 17.8254 46 18.7109C46 18.9871 45.7761 19.2109 45.5 19.2109C45.2239 19.2109 45 18.9871 45 18.7109C45 18.2165 44.775 17.8695 44.3641 17.6215C43.928 17.3583 43.2792 17.2109 42.5 17.2109C41.7208 17.2109 41.072 17.3583 40.6359 17.6215C40.225 17.8695 40 18.2165 40 18.7109C40 18.9871 39.7761 19.2109 39.5 19.2109C39.2239 19.2109 39 18.9871 39 18.7109C39 17.8254 39.445 17.1723 40.1191 16.7654Z" fill="#2D62EA"/>
</g>
<defs>
<clipPath id="clip0_1_6737">
<rect width="60" height="60" fill="white"/>
</clipPath>
</defs>
</svg>
