<svg width="60" height="60" viewBox="0 0 60 60" fill="none" xmlns="http://www.w3.org/2000/svg">
<g clip-path="url(#clip0_1_6740)">
<path d="M59.5 30C59.5 46.2924 46.2924 59.5 30 59.5C13.7076 59.5 0.5 46.2924 0.5 30C0.5 13.7076 13.7076 0.5 30 0.5C46.2924 0.5 59.5 13.7076 59.5 30Z" fill="#BFD1FF" stroke="#2D62EA" stroke-miterlimit="10"/>
<path fill-rule="evenodd" clip-rule="evenodd" d="M22.8273 39.6968C24.858 37.7417 27.3885 36.3008 29.9991 36.3008C32.6095 36.3008 35.1425 37.7415 37.1745 39.6967C39.2122 41.6574 40.8134 44.1978 41.5461 46.531L41.5471 46.534C41.7943 47.3392 41.5971 48.1065 41.1361 48.684C40.6817 49.2531 39.9789 49.6326 39.1992 49.7271L39.193 49.7279L39.193 49.7279C36.1357 50.0597 33.0677 50.2308 29.9991 50.2308C26.9305 50.2308 23.8625 50.0597 20.8051 49.7279L20.7994 49.7272L20.7994 49.7272C20.0156 49.6329 19.3097 49.254 18.8546 48.684C18.3924 48.1051 18.1984 47.3362 18.4522 46.5306L18.4523 46.53C19.19 44.1976 20.7909 41.6575 22.8273 39.6968ZM19.4059 46.8313C19.2598 47.2956 19.3658 47.7215 19.6361 48.0601C19.913 48.407 20.371 48.6678 20.9161 48.734C23.9377 49.0619 26.9687 49.2308 29.9991 49.2308C33.0294 49.2308 36.0603 49.0619 39.0819 48.7341C39.6209 48.668 40.0769 48.4078 40.3546 48.0601C40.6257 47.7205 40.7336 47.2933 40.5916 46.8291C39.914 44.6727 38.4105 42.2738 36.4811 40.4173C34.5457 38.555 32.2486 37.3008 29.9991 37.3008C27.7496 37.3008 25.4551 38.5549 23.5209 40.4172C21.5924 42.274 20.0883 44.6737 19.4059 46.8313Z" fill="#2D62EA"/>
<path d="M17.3008 31C19.5099 31 21.3008 28.7614 21.3008 26C21.3008 23.2386 19.5099 21 17.3008 21C15.0916 21 13.3008 23.2386 13.3008 26C13.3008 28.7614 15.0916 31 17.3008 31Z" fill="#2D62EA"/>
<path d="M42.5586 31C44.7677 31 46.5586 28.7614 46.5586 26C46.5586 23.2386 44.7677 21 42.5586 21C40.3495 21 38.5586 23.2386 38.5586 26C38.5586 28.7614 40.3495 31 42.5586 31Z" fill="#2D62EA"/>
<path fill-rule="evenodd" clip-rule="evenodd" d="M14.1357 17.2956C14.3651 17.1419 14.6757 17.2033 14.8294 17.4327L14.414 17.711C14.8294 17.4327 14.8294 17.4327 14.8294 17.4327L14.8307 17.4346L14.8395 17.4474C14.8478 17.4593 14.861 17.4779 14.8788 17.5023C14.9144 17.5511 14.9682 17.6226 15.0382 17.7092C15.1788 17.8831 15.3815 18.114 15.6304 18.3433C16.1457 18.8183 16.7765 19.211 17.414 19.211C18.0515 19.211 18.6823 18.8183 19.1976 18.3433C19.4465 18.114 19.6492 17.8831 19.7898 17.7092C19.8598 17.6226 19.9136 17.5511 19.9492 17.5023C19.967 17.4779 19.9801 17.4593 19.9885 17.4474L19.9973 17.4346L19.9986 17.4327C20.1524 17.2034 20.463 17.1419 20.6923 17.2956C20.9217 17.4493 20.9831 17.7599 20.8294 17.9893L20.414 17.711C20.8294 17.9893 20.8294 17.9893 20.8294 17.9893L20.8285 17.9906L20.8271 17.9926L20.8229 17.9988L20.8086 18.0195C20.7965 18.0369 20.7793 18.0612 20.7572 18.0915C20.713 18.1521 20.6491 18.2369 20.5675 18.3378C20.405 18.5389 20.169 18.808 19.8754 19.0787C19.3057 19.6037 18.4365 20.211 17.414 20.211C16.3915 20.211 15.5223 19.6037 14.9526 19.0787C14.659 18.808 14.423 18.5389 14.2605 18.3378C14.1789 18.2369 14.115 18.1521 14.0708 18.0915C14.0487 18.0612 14.0315 18.0369 14.0194 18.0195L14.0051 17.9988L14.0009 17.9926L13.9995 17.9906L13.9988 17.9896C13.9988 17.9896 13.9986 17.9893 14.414 17.711L13.9988 17.9896C13.8451 17.7601 13.9063 17.4493 14.1357 17.2956Z" fill="#2D62EA"/>
<path fill-rule="evenodd" clip-rule="evenodd" d="M39.3076 17.2956C39.537 17.1419 39.8476 17.2033 40.0013 17.4327L39.5859 17.711C40.0013 17.4327 40.0013 17.4327 40.0013 17.4327L40.0026 17.4346L40.0114 17.4474C40.0197 17.4593 40.0329 17.4779 40.0507 17.5023C40.0863 17.5511 40.14 17.6226 40.21 17.7092C40.3506 17.8831 40.5534 18.114 40.8022 18.3433C41.3176 18.8183 41.9484 19.211 42.5859 19.211C43.2234 19.211 43.8541 18.8183 44.3695 18.3433C44.6183 18.114 44.8211 17.8831 44.9617 17.7092C45.0317 17.6226 45.0855 17.5511 45.1211 17.5023C45.1388 17.4779 45.152 17.4593 45.1604 17.4474L45.1692 17.4346L45.1705 17.4327C45.3242 17.2034 45.6348 17.1419 45.8642 17.2956C46.0936 17.4493 46.155 17.7599 46.0013 17.9893L45.5859 17.711C46.0013 17.9893 46.0013 17.9893 46.0013 17.9893L46.0004 17.9906L45.999 17.9926L45.9948 17.9988L45.9805 18.0195C45.9684 18.0369 45.9511 18.0612 45.929 18.0915C45.8849 18.1521 45.821 18.2369 45.7394 18.3378C45.5769 18.5389 45.3409 18.808 45.0472 19.0787C44.4776 19.6037 43.6084 20.211 42.5859 20.211C41.5634 20.211 40.6942 19.6037 40.1245 19.0787C39.8308 18.808 39.5949 18.5389 39.4323 18.3378C39.3508 18.2369 39.2869 18.1521 39.2427 18.0915C39.2206 18.0612 39.2034 18.0369 39.1913 18.0195L39.177 17.9988L39.1727 17.9926L39.1714 17.9906L39.1707 17.9896C39.1707 17.9896 39.1705 17.9893 39.5859 17.711L39.1707 17.9896C39.017 17.7601 39.0782 17.4493 39.3076 17.2956Z" fill="#2D62EA"/>
</g>
<defs>
<clipPath id="clip0_1_6740">
<rect width="60" height="60" fill="white"/>
</clipPath>
</defs>
</svg>
