<svg width="60" height="60" viewBox="0 0 60 60" fill="none" xmlns="http://www.w3.org/2000/svg">
<g clip-path="url(#clip0_1_6738)">
<path d="M59.5 30C59.5 46.2924 46.2924 59.5 30 59.5C13.7076 59.5 0.5 46.2924 0.5 30C0.5 13.7076 13.7076 0.5 30 0.5C46.2924 0.5 59.5 13.7076 59.5 30Z" fill="#BFD1FF" stroke="#2D62EA" stroke-miterlimit="10"/>
<path d="M17.3008 31C19.5099 31 21.3008 28.7614 21.3008 26C21.3008 23.2386 19.5099 21 17.3008 21C15.0916 21 13.3008 23.2386 13.3008 26C13.3008 28.7614 15.0916 31 17.3008 31Z" fill="#2D62EA"/>
<path d="M42.5586 31C44.7677 31 46.5586 28.7614 46.5586 26C46.5586 23.2386 44.7677 21 42.5586 21C40.3495 21 38.5586 23.2386 38.5586 26C38.5586 28.7614 40.3495 31 42.5586 31Z" fill="#2D62EA"/>
<path fill-rule="evenodd" clip-rule="evenodd" d="M18.0195 42.7695C18.0195 42.4934 18.2434 42.2695 18.5195 42.2695H41.4795C41.7557 42.2695 41.9795 42.4934 41.9795 42.7695C41.9795 43.0457 41.7557 43.2695 41.4795 43.2695H18.5195C18.2434 43.2695 18.0195 43.0457 18.0195 42.7695Z" fill="#2D62EA"/>
<path fill-rule="evenodd" clip-rule="evenodd" d="M13.8008 18.7109C13.8008 18.4348 14.0246 18.2109 14.3008 18.2109H20.3008C20.5769 18.2109 20.8008 18.4348 20.8008 18.7109C20.8008 18.9871 20.5769 19.2109 20.3008 19.2109H14.3008C14.0246 19.2109 13.8008 18.9871 13.8008 18.7109Z" fill="#2D62EA"/>
<path fill-rule="evenodd" clip-rule="evenodd" d="M39.0586 18.7109C39.0586 18.4348 39.2825 18.2109 39.5586 18.2109H45.5586C45.8347 18.2109 46.0586 18.4348 46.0586 18.7109C46.0586 18.9871 45.8347 19.2109 45.5586 19.2109H39.5586C39.2825 19.2109 39.0586 18.9871 39.0586 18.7109Z" fill="#2D62EA"/>
</g>
<defs>
<clipPath id="clip0_1_6738">
<rect width="60" height="60" fill="white"/>
</clipPath>
</defs>
</svg>
