<svg width="60" height="60" viewBox="0 0 60 60" fill="none" xmlns="http://www.w3.org/2000/svg">
<path d="M59.5 30C59.5 46.2924 46.2924 59.5 30 59.5C13.7076 59.5 0.5 46.2924 0.5 30C0.5 13.7076 13.7076 0.5 30 0.5C46.2924 0.5 59.5 13.7076 59.5 30Z" fill="white" stroke="#CFCFCF" stroke-miterlimit="10"/>
<path d="M17.3008 31C19.5099 31 21.3008 28.7614 21.3008 26C21.3008 23.2386 19.5099 21 17.3008 21C15.0916 21 13.3008 23.2386 13.3008 26C13.3008 28.7614 15.0916 31 17.3008 31Z" fill="#CFCFCF"/>
<path d="M42.5586 31C44.7677 31 46.5586 28.7614 46.5586 26C46.5586 23.2386 44.7677 21 42.5586 21C40.3495 21 38.5586 23.2386 38.5586 26C38.5586 28.7614 40.3495 31 42.5586 31Z" fill="#CFCFCF"/>
<path fill-rule="evenodd" clip-rule="evenodd" d="M20.8052 36.8037C23.8626 36.4718 26.9306 36.3008 29.9992 36.3008C33.0677 36.3008 36.1358 36.4718 39.1931 36.8037L39.1989 36.8043L39.1989 36.8044C39.9826 36.8986 40.6886 37.2776 41.1436 37.8476C41.6058 38.4264 41.7998 39.1954 41.5461 40.001L41.5459 40.0015C40.8082 42.3339 39.2073 44.8741 37.1709 46.8347C35.1402 48.7899 32.6097 50.2308 29.9992 50.2308C27.3887 50.2308 24.8557 48.79 22.8237 46.8348C20.7861 44.8742 19.1848 42.3338 18.4521 40.0006L18.4512 39.9976L18.4512 39.9976C18.2039 39.1924 18.4011 38.4251 18.8622 37.8476C19.3165 37.2785 20.0193 36.8989 20.799 36.8044L20.8052 36.8037L20.8052 36.8037ZM20.9164 37.7975C20.3773 37.8636 19.9213 38.1237 19.6436 38.4715C19.3725 38.8111 19.2646 39.2383 19.4067 39.7026C20.0842 41.859 21.5877 44.2578 23.5171 46.1142C25.4526 47.9765 27.7496 49.2308 29.9992 49.2308C32.2486 49.2308 34.5431 47.9767 36.4774 46.1143C38.4059 44.2575 39.91 41.8578 40.5924 39.7002C40.7385 39.2359 40.6324 38.81 40.3622 38.4715C40.0852 38.1246 39.6272 37.8638 39.0822 37.7975C36.0605 37.4696 33.0296 37.3008 29.9992 37.3008C26.9688 37.3008 23.9379 37.4696 20.9164 37.7975Z" fill="#CFCFCF"/>
<path fill-rule="evenodd" clip-rule="evenodd" d="M45.6963 19.9153C45.4669 20.069 45.1564 20.0077 45.0026 19.7783L45.418 19.4999C45.0026 19.7783 45.0026 19.7783 45.0026 19.7783L45.0013 19.7763L44.9925 19.7636C44.9842 19.7516 44.971 19.733 44.9532 19.7086C44.9176 19.6598 44.8639 19.5884 44.7939 19.5018C44.6533 19.3278 44.4505 19.0969 44.2017 18.8676C43.6863 18.3926 43.0555 17.9999 42.418 17.9999C41.7805 17.9999 41.1498 18.3926 40.6344 18.8676C40.3856 19.0969 40.1828 19.3278 40.0422 19.5018C39.9722 19.5884 39.9184 19.6598 39.8828 19.7086C39.8651 19.733 39.8519 19.7516 39.8436 19.7636L39.8347 19.7763L39.8334 19.7783C39.6797 20.0075 39.3691 20.069 39.1397 19.9153C38.9103 19.7616 38.8489 19.4511 39.0026 19.2216L39.418 19.4999C39.0026 19.2216 39.0026 19.2216 39.0026 19.2216L39.0035 19.2203L39.0049 19.2183L39.0091 19.2121L39.0234 19.1914C39.0355 19.174 39.0528 19.1497 39.0749 19.1194C39.1191 19.0588 39.1829 18.974 39.2645 18.8731C39.427 18.6721 39.663 18.403 39.9567 18.1323C40.5263 17.6073 41.3955 16.9999 42.418 16.9999C43.4405 16.9999 44.3098 17.6073 44.8794 18.1323C45.1731 18.403 45.409 18.6721 45.5716 18.8731C45.6531 18.974 45.717 19.0588 45.7612 19.1194C45.7833 19.1497 45.8005 19.174 45.8126 19.1914L45.827 19.2121L45.8312 19.2183L45.8325 19.2203L45.8332 19.2214C45.8332 19.2214 45.8334 19.2216 45.418 19.4999L45.8332 19.2214C45.987 19.4508 45.9258 19.7616 45.6963 19.9153Z" fill="#CFCFCF"/>
<path fill-rule="evenodd" clip-rule="evenodd" d="M20.7784 19.9153C20.549 20.069 20.2384 20.0077 20.0847 19.7783L20.5001 19.4999C20.0847 19.7783 20.0846 19.7782 20.0847 19.7783C20.0848 19.7784 20.0847 19.7783 20.0847 19.7783L20.0834 19.7763L20.0745 19.7636C20.0662 19.7516 20.053 19.733 20.0353 19.7086C19.9997 19.6598 19.9459 19.5884 19.8759 19.5018C19.7353 19.3278 19.5325 19.0969 19.2837 18.8676C18.7683 18.3926 18.1376 17.9999 17.5001 17.9999C16.8626 17.9999 16.2318 18.3926 15.7164 18.8676C15.4676 19.0969 15.2648 19.3278 15.1242 19.5018C15.0542 19.5884 15.0005 19.6598 14.9649 19.7086C14.9471 19.733 14.9339 19.7516 14.9256 19.7636L14.9168 19.7763L14.9155 19.7783C14.7617 20.0075 14.4511 20.069 14.2218 19.9153C13.9923 19.7616 13.931 19.4511 14.0847 19.2216L14.5001 19.4999C14.0847 19.2216 14.0846 19.2218 14.0847 19.2216L14.0856 19.2203L14.0869 19.2183L14.0911 19.2121L14.1055 19.1914C14.1176 19.174 14.1348 19.1497 14.1569 19.1194C14.2011 19.0588 14.265 18.974 14.3465 18.8731C14.5091 18.6721 14.745 18.403 15.0387 18.1323C15.6083 17.6073 16.4776 16.9999 17.5001 16.9999C18.5226 16.9999 19.3918 17.6073 19.9614 18.1323C20.2551 18.403 20.4911 18.6721 20.6536 18.8731C20.7352 18.974 20.799 19.0588 20.8432 19.1194C20.8653 19.1497 20.8826 19.174 20.8947 19.1914L20.909 19.2121L20.9132 19.2183L20.9146 19.2203L20.9153 19.2214C20.9154 19.2215 20.9155 19.2216 20.5001 19.4999L20.9153 19.2214C21.069 19.4508 21.0078 19.7616 20.7784 19.9153Z" fill="#CFCFCF"/>
</svg>
