<svg width="117" height="104" viewBox="0 0 117 104" fill="none" xmlns="http://www.w3.org/2000/svg">
<path fill-rule="evenodd" clip-rule="evenodd" d="M2 6C2 3.79086 3.79086 2 6 2H65C67.2091 2 69 3.79086 69 6C69 8.20914 67.2091 10 65 10H6C3.79086 10 2 8.20914 2 6ZM2 29C2 26.7909 3.79086 25 6 25H111C113.209 25 115 26.7909 115 29C115 31.2091 113.209 33 111 33H6C3.79086 33 2 31.2091 2 29ZM6 48C3.79086 48 2 49.7909 2 52C2 54.2091 3.79086 56 6 56H111C113.209 56 115 54.2091 115 52C115 49.7909 113.209 48 111 48H6ZM2 75C2 72.7909 3.79086 71 6 71H111C113.209 71 115 72.7909 115 75C115 77.2091 113.209 79 111 79H6C3.79086 79 2 77.2091 2 75ZM6 94C3.79086 94 2 95.7909 2 98C2 100.209 3.79086 102 6 102H111C113.209 102 115 100.209 115 98C115 95.7909 113.209 94 111 94H6Z" fill="#F4F4F4"/>
</svg>
