<svg width="88" height="60" viewBox="0 0 88 60" fill="none" xmlns="http://www.w3.org/2000/svg">
<rect x="2.5" y="7.5" width="70" height="19" rx="7.5" fill="#EBF1FF" stroke="#6691FF"/>
<path d="M13.0078 18.3398H14.1562L15.0527 19.5117C15.6855 18.9551 16.084 18.0234 16.0898 16.7578C16.084 14.5664 14.8945 13.3828 13.3594 13.3828C11.8242 13.3828 10.6348 14.5664 10.6289 16.7578C10.6348 18.9434 11.8242 20.127 13.3594 20.1328C13.6758 20.1328 13.9805 20.0801 14.2617 19.9805L13.0078 18.3398ZM9.60938 16.7578C9.60352 14.0742 11.1797 12.3984 13.3594 12.3984C15.5332 12.3984 17.1152 14.0742 17.1094 16.7578C17.1152 18.3457 16.5645 19.5762 15.6621 20.3203L16.7695 21.7969H15.6211L14.8828 20.8066C14.4258 21.0117 13.9102 21.1172 13.3594 21.1172C11.1797 21.1172 9.60352 19.4414 9.60938 16.7578ZM18.7031 21.0703C18.293 21.0645 17.9414 20.7246 17.9531 20.3086C17.9414 19.8984 18.293 19.5586 18.7031 19.5586C19.1191 19.5586 19.459 19.8984 19.4531 20.3086C19.459 20.7246 19.1191 21.0645 18.7031 21.0703Z" fill="#6691FF"/>
<rect x="26" y="12" width="18" height="4" rx="2" fill="#BFD1FF"/>
<rect x="26" y="18" width="37" height="4" rx="2" fill="#BFD1FF"/>
<rect x="15.5" y="33.5" width="70" height="19" rx="7.5" fill="#EBF1FF" stroke="#6691FF"/>
<path d="M68.3125 47H67.2109L70.3164 38.5156H71.4297L74.5352 47H73.4219L72.5723 44.6094H69.1621L68.3125 47ZM69.4844 43.6836H72.25L70.9023 39.8867H70.832L69.4844 43.6836ZM76.2695 47.0703C75.8594 47.0645 75.5078 46.7246 75.5195 46.3086C75.5078 45.8984 75.8594 45.5586 76.2695 45.5586C76.6855 45.5586 77.0254 45.8984 77.0195 46.3086C77.0254 46.7246 76.6855 47.0645 76.2695 47.0703Z" fill="#6691FF"/>
<rect x="22" y="38" width="18" height="4" rx="2" fill="#BFD1FF"/>
<rect x="22" y="44" width="37" height="4" rx="2" fill="#BFD1FF"/>
</svg>
