<svg width="42" height="60" viewBox="0 0 42 60" fill="none" xmlns="http://www.w3.org/2000/svg">
<path d="M22.7986 2.5V6.09078L22.5786 11.0608C22.5486 11.7108 22.3286 12.3408 21.9486 12.8708L17.2486 19.3708C16.9986 19.7208 16.8086 20.1208 16.4786 20.7008L16.3586 21.2008C16.1386 22.1208 16.0986 23.0808 16.3686 23.9908C16.4086 24.1408 16.4686 24.2908 16.5286 24.4308L16.6286 24.6608C17.2086 26.0108 18.4086 26.9908 19.8486 27.2908L20.4086 27.4108C20.7786 27.4908 21.1486 27.4608 21.5086 27.3408L26.3086 25.6908C27.0986 25.4208 27.9586 25.4508 28.7286 25.7908L32.6786 27.5108C32.9186 27.6108 33.1686 27.6908 33.4286 27.7408L35.1686 28.0508C35.7886 28.1608 36.4286 28.0908 37.0086 27.8508L37.1386 27.8008C38.3586 27.3008 39.3186 26.3208 39.7886 25.0908L39.8186 25.0008C40.2086 23.9808 40.2286 22.8508 39.8686 21.8208L39.3586 20.3708C39.2786 20.1508 39.1786 19.9408 39.0686 19.7408L35.0286 13.0408C34.6886 12.4708 34.5186 11.8208 34.5486 11.1608L34.7686 6.20078L35.1686 2.5" stroke="#AEAEAE" stroke-miterlimit="10"/>
<path d="M32.9112 57.02L33.0612 54.0888L33.2812 49.1188C33.3112 48.4688 33.5312 47.8388 33.9112 47.3088L38.6112 40.8088C38.8612 40.4588 39.0512 40.0588 39.3812 39.4788L39.5012 38.9788C39.7212 38.0588 39.7612 37.0988 39.4912 36.1888C39.4512 36.0388 39.3912 35.8888 39.3312 35.7488L39.2312 35.5188C38.6512 34.1688 37.4512 33.1888 36.0112 32.8888L35.4512 32.7688C35.0812 32.6888 34.7112 32.7188 34.3512 32.8388L29.5512 34.4888C28.7612 34.7588 27.9012 34.7288 27.1312 34.3888L23.1812 32.6688C22.9412 32.5688 22.6912 32.4888 22.4312 32.4388L20.6912 32.1288C20.0712 32.0188 19.4312 32.0888 18.8512 32.3288L18.7212 32.3788C17.5012 32.8788 16.5412 33.8588 16.0712 35.0888L16.0412 35.1788C15.6512 36.1988 15.6312 37.3288 15.9912 38.3588L16.5012 39.8088C16.5812 40.0288 16.6812 40.2388 16.7912 40.4388L20.8312 47.1388C21.1712 47.7088 21.3412 48.3588 21.3112 49.0188L21.0912 53.9788L21.3112 56.5" stroke="#AEAEAE" stroke-miterlimit="10"/>
<path opacity="0.5" d="M20.1603 44.5511C29.4608 44.5511 37.0003 37.0116 37.0003 27.7111C37.0003 18.4106 29.4608 10.8711 20.1603 10.8711C10.8598 10.8711 3.32031 18.4106 3.32031 27.7111C3.32031 37.0116 10.8598 44.5511 20.1603 44.5511Z" fill="#AEAEAE"/>
<path d="M8.40687 20.3795L2.54688 14.5195" stroke="#AEAEAE" stroke-linecap="round" stroke-linejoin="round"/>
<path d="M8.40687 32.5195L2.54688 38.3695" stroke="#AEAEAE" stroke-linecap="round" stroke-linejoin="round"/>
<path d="M2 26.4492H8.41" stroke="#AEAEAE" stroke-linecap="round" stroke-linejoin="round"/>
</svg>
