<svg width="52" height="60" viewBox="0 0 52 60" fill="none" xmlns="http://www.w3.org/2000/svg">
<path d="M50.5 30C50.5 43.531 39.531 54.5 26 54.5C12.469 54.5 1.5 43.531 1.5 30C1.5 16.469 12.469 5.5 26 5.5C39.531 5.5 50.5 16.469 50.5 30Z" fill="#F4F4F4" stroke="#AEAEAE" stroke-miterlimit="10"/>
<path d="M15.4193 30.8333C17.2602 30.8333 18.7526 28.9679 18.7526 26.6667C18.7526 24.3655 17.2602 22.5 15.4193 22.5C13.5783 22.5 12.0859 24.3655 12.0859 26.6667C12.0859 28.9679 13.5783 30.8333 15.4193 30.8333Z" fill="#AEAEAE"/>
<path d="M36.4661 30.8333C38.3071 30.8333 39.7995 28.9679 39.7995 26.6667C39.7995 24.3655 38.3071 22.5 36.4661 22.5C34.6252 22.5 33.1328 24.3655 33.1328 26.6667C33.1328 28.9679 34.6252 30.8333 36.4661 30.8333Z" fill="#AEAEAE"/>
<path fill-rule="evenodd" clip-rule="evenodd" d="M18.3403 35.6691C20.8881 35.3925 23.4447 35.25 26.0019 35.25C28.5591 35.25 31.1157 35.3925 33.6635 35.6691L33.6683 35.6696L33.6683 35.6696C34.3215 35.7482 34.9097 36.064 35.289 36.539C35.6741 37.0214 35.8358 37.6622 35.6243 38.3335L35.6242 38.334C35.0095 40.2776 33.6754 42.3944 31.9784 44.0283C30.2861 45.6576 28.1774 46.8583 26.0019 46.8583C23.8265 46.8583 21.7157 45.6577 20.0224 44.0284C18.3243 42.3945 16.9899 40.2775 16.3794 38.3332L16.3786 38.3307L16.3786 38.3306C16.1725 37.6597 16.3368 37.0203 16.7211 36.539C17.0997 36.0647 17.6854 35.7484 18.3351 35.6697L18.3403 35.6691L18.3403 35.6691ZM18.4329 36.4973C17.9837 36.5523 17.6037 36.7691 17.3723 37.0589C17.1464 37.3419 17.0564 37.6979 17.1748 38.0848C17.7395 39.8818 18.9924 41.8809 20.6002 43.4279C22.2131 44.9798 24.1273 46.025 26.0019 46.025C27.8764 46.025 29.7885 44.9799 31.4004 43.428C33.0075 41.8806 34.2609 39.8808 34.8296 38.0828C34.9513 37.696 34.863 37.341 34.6377 37.0589C34.4069 36.7698 34.0253 36.5525 33.5711 36.4973C31.053 36.224 28.5272 36.0833 26.0019 36.0833C23.4766 36.0833 20.9509 36.224 18.4329 36.4973Z" fill="#AEAEAE"/>
<path fill-rule="evenodd" clip-rule="evenodd" d="M39.0809 21.5955C38.8897 21.7236 38.6309 21.6724 38.5028 21.4813L38.849 21.2493C38.5028 21.4813 38.5028 21.4813 38.5028 21.4813L38.5017 21.4797L38.4944 21.469C38.4874 21.4591 38.4764 21.4436 38.4616 21.4232C38.432 21.3826 38.3872 21.323 38.3288 21.2509C38.2117 21.1059 38.0427 20.9135 37.8353 20.7224C37.4059 20.3266 36.8802 19.9993 36.349 19.9993C35.8177 19.9993 35.2921 20.3266 34.8626 20.7224C34.6552 20.9135 34.4863 21.1059 34.3691 21.2509C34.3108 21.323 34.266 21.3826 34.2363 21.4232C34.2215 21.4436 34.2105 21.4591 34.2036 21.469L34.1962 21.4797L34.1951 21.4813C34.067 21.6723 33.8082 21.7236 33.617 21.5955C33.4259 21.4674 33.3747 21.2086 33.5028 21.0174L33.849 21.2493C33.5028 21.0174 33.5028 21.0174 33.5028 21.0174L33.5035 21.0163L33.5047 21.0147L33.5082 21.0095L33.5201 20.9922C33.5302 20.9778 33.5446 20.9575 33.563 20.9322C33.5998 20.8817 33.653 20.8111 33.721 20.727C33.8565 20.5594 34.0531 20.3352 34.2978 20.1096C34.7725 19.6721 35.4969 19.166 36.349 19.166C37.2011 19.166 37.9254 19.6721 38.4001 20.1096C38.6448 20.3352 38.8415 20.5594 38.9769 20.727C39.0449 20.8111 39.0981 20.8817 39.1349 20.9322C39.1534 20.9575 39.1677 20.9778 39.1778 20.9922L39.1897 21.0095L39.1933 21.0147L39.1944 21.0163L39.195 21.0172C39.195 21.0172 39.1951 21.0174 38.849 21.2493L39.195 21.0172C39.3231 21.2084 39.2721 21.4674 39.0809 21.5955Z" fill="#AEAEAE"/>
<path fill-rule="evenodd" clip-rule="evenodd" d="M18.3153 21.5955C18.1241 21.7235 17.8653 21.6724 17.7372 21.4812L18.0834 21.2493C17.7372 21.4812 17.7372 21.4812 17.7372 21.4812L17.7361 21.4796L17.7288 21.469C17.7218 21.459 17.7109 21.4435 17.6961 21.4232C17.6664 21.3825 17.6216 21.323 17.5633 21.2508C17.4461 21.1059 17.2771 20.9135 17.0698 20.7224C16.6403 20.3265 16.1146 19.9993 15.5834 19.9993C15.0521 19.9993 14.5265 20.3265 14.097 20.7224C13.8897 20.9135 13.7207 21.1059 13.6035 21.2508C13.5452 21.323 13.5004 21.3825 13.4707 21.4232C13.4559 21.4435 13.4449 21.459 13.438 21.469L13.4306 21.4796L13.4295 21.4812C13.3014 21.6723 13.0426 21.7235 12.8515 21.5955C12.6603 21.4674 12.6091 21.2086 12.7372 21.0174L13.0834 21.2493C12.7372 21.0174 12.7372 21.0174 12.7372 21.0174L12.738 21.0163L12.7391 21.0146L12.7426 21.0094L12.7545 20.9922C12.7646 20.9777 12.779 20.9574 12.7974 20.9322C12.8342 20.8817 12.8875 20.8111 12.9554 20.727C13.0909 20.5594 13.2875 20.3351 13.5323 20.1096C14.007 19.6721 14.7313 19.166 15.5834 19.166C16.4355 19.166 17.1598 19.6721 17.6345 20.1096C17.8792 20.3351 18.0759 20.5594 18.2113 20.727C18.2793 20.8111 18.3325 20.8817 18.3694 20.9322C18.3878 20.9574 18.4021 20.9777 18.4122 20.9922L18.4242 21.0094L18.4277 21.0146L18.4288 21.0163L18.4294 21.0172C18.4294 21.0172 18.4295 21.0174 18.0834 21.2493L18.4294 21.0172C18.5575 21.2083 18.5065 21.4674 18.3153 21.5955Z" fill="#AEAEAE"/>
</svg>
