<svg width="18" height="19" viewBox="0 0 18 19" fill="none" xmlns="http://www.w3.org/2000/svg">
<path d="M9.00007 0.5C9.27622 0.5 9.50007 0.723858 9.50007 1V2.25042C10.5767 2.2616 11.836 2.55325 12.9359 3.42061C14.2476 4.45495 15.2199 6.21849 15.4615 8.98026C15.4634 9.002 15.4644 9.02382 15.4644 9.04564V13.9906C15.4644 14.3365 15.4814 14.4596 15.5849 14.5885C15.7093 14.7434 16.0746 15.0287 17.1611 15.2675C17.535 15.3497 17.787 15.7003 17.7457 16.081C17.7044 16.4616 17.3829 16.75 17.0001 16.75H11.985C11.9161 17.3212 11.6128 17.8582 11.1213 18.2678C10.5587 18.7366 9.79565 19 9 19C8.20435 19 7.44129 18.7366 6.87868 18.2678C6.38723 17.8582 6.0839 17.3212 6.01503 16.75H1.00007C0.645289 16.75 0.339038 16.5014 0.266096 16.1542C0.193155 15.807 0.373481 15.4562 0.698274 15.3134C1.04191 15.1624 1.55892 14.8884 1.97634 14.5729C2.18558 14.4147 2.34357 14.2655 2.44275 14.1374C2.51805 14.0402 2.53323 13.9894 2.53577 13.9809L2.53579 9.04564C2.53579 8.03752 2.584 6.34376 3.44026 4.89615C4.29017 3.45928 5.84944 2.39634 8.50007 2.27831V1C8.50007 0.723858 8.72393 0.5 9.00007 0.5ZM7.54234 16.75C7.60057 16.9857 7.74039 17.2042 7.94768 17.3769C8.22677 17.6095 8.6053 17.7402 9 17.7402C9.3947 17.7402 9.77323 17.6095 10.0523 17.3769C10.2596 17.2042 10.3994 16.9857 10.4577 16.75H7.54234ZM12.0071 4.59846C11.0853 3.87153 9.97549 3.69182 9.05982 3.765C9.03995 3.76659 9.02001 3.76739 9.00007 3.76739C6.4711 3.76739 5.315 4.67302 4.73132 5.65981C4.10186 6.72398 4.03579 8.04433 4.03579 9.04564V13.9906C4.03579 14.4266 3.83311 14.7918 3.62883 15.0557C3.57718 15.1224 3.52191 15.1872 3.46395 15.25H14.2282C13.9631 14.7732 13.9639 14.3018 13.9643 14.0236L13.9644 13.9906V9.07886C13.7444 6.63667 12.9105 5.31087 12.0071 4.59846Z" fill="black"/>
</svg>
