<svg width="100" height="100" viewBox="0 0 100 100" fill="none" xmlns="http://www.w3.org/2000/svg">
<g clip-path="url(#clip0_1_6817)">
<circle cx="50" cy="50" r="49" stroke="#CFCFCF" stroke-width="2" stroke-dasharray="4 4"/>
<path fill-rule="evenodd" clip-rule="evenodd" d="M26 36C26 33.7909 27.7909 32 30 32H70C72.2091 32 74 33.7909 74 36V64C74 66.2091 72.2091 68 70 68H30C27.7909 68 26 66.2091 26 64V36ZM46.7255 44.7698C46.3308 44.352 45.6661 44.352 45.2714 44.7698L30.5914 60.3134C29.9891 60.9511 30.4412 62 31.3184 62H49.4127H60.6785H68.5842C69.4751 62 69.9213 60.9229 69.2914 60.2929L59.7056 50.7071C59.315 50.3166 58.6819 50.3166 58.2914 50.7071L55.227 53.7714L46.7255 44.7698ZM62 46C64.2091 46 66 44.2091 66 42C66 39.7909 64.2091 38 62 38C59.7909 38 58 39.7909 58 42C58 44.2091 59.7909 46 62 46Z" fill="#CFCFCF"/>
</g>
<defs>
<clipPath id="clip0_1_6817">
<rect width="100" height="100" fill="white"/>
</clipPath>
</defs>
</svg>
