<svg width="100" height="100" viewBox="0 0 100 100" fill="none" xmlns="http://www.w3.org/2000/svg">
<g clip-path="url(#clip0_1_6808)">
<path fill-rule="evenodd" clip-rule="evenodd" d="M98.9628 51.9272L99.9621 51.9659C99.9873 51.3137 100 50.6583 100 50C100 49.3417 99.9873 48.6863 99.9621 48.0341L98.9628 48.0728L97.9636 48.1114C97.9878 48.7378 98 49.3674 98 50C98 50.6326 97.9878 51.2622 97.9636 51.8886L98.9628 51.9272ZM98.6646 44.2359L99.6578 44.1195C99.5045 42.8109 99.3007 41.5177 99.0483 40.2419L98.0673 40.436L97.0863 40.63C97.3286 41.8545 97.5242 43.0959 97.6714 44.3522L98.6646 44.2359ZM97.1719 36.6934L98.1345 36.4224C97.7782 35.157 97.3735 33.9119 96.9223 32.6894L95.9841 33.0356L95.046 33.3818C95.479 34.5551 95.8674 35.75 96.2093 36.9644L97.1719 36.6934ZM93.6327 25.5648C94.2719 26.7036 94.8677 27.87 95.418 29.0616L94.5101 29.4809L93.6022 29.9001C93.074 28.7563 92.5021 27.6368 91.8886 26.5437L92.7607 26.0543L93.6327 25.5648ZM90.7473 22.7755L91.5783 22.2192C90.849 21.1299 90.078 20.0709 89.2677 19.0443L88.4828 19.6639L87.6979 20.2836C88.476 21.2692 89.2162 22.286 89.9163 23.3319L90.7473 22.7755ZM85.9823 16.7389L86.7164 16.06C85.8275 15.0987 84.9013 14.1725 83.94 13.2836L83.2611 14.0177L82.5821 14.7519C83.5051 15.6055 84.3945 16.4949 85.2481 17.4179L85.9823 16.7389ZM80.3361 11.5172L80.9557 10.7323C79.9291 9.92195 78.8701 9.151 77.7808 8.42173L77.2245 9.2527L76.6681 10.0837C77.714 10.7838 78.7308 11.524 79.7164 12.3021L80.3361 11.5172ZM73.9457 7.23931L74.4352 6.36726C73.2964 5.72815 72.13 5.13234 70.9384 4.58204L70.5191 5.48992L70.0999 6.39779C71.2437 6.92596 72.3632 7.49786 73.4563 8.11136L73.9457 7.23931ZM66.9644 4.01587L67.3106 3.07772C66.0881 2.62652 64.843 2.22175 63.5776 1.86553L63.3066 2.82811L63.0356 3.7907C64.25 4.13256 65.4449 4.52101 66.6182 4.95402L66.9644 4.01587ZM59.564 1.93269L59.7581 0.951702C58.4823 0.699318 57.1891 0.495467 55.8805 0.342151L55.7641 1.33536L55.6478 2.32857C56.9041 2.47576 58.1455 2.67144 59.37 2.91368L59.564 1.93269ZM51.9272 1.03719L51.9659 0.037938C51.3137 0.0127235 50.6583 0 50 0C49.3417 0 48.6863 0.0127236 48.0341 0.0379384L48.0728 1.03719L48.1114 2.03645C48.7378 2.01223 49.3674 2 50 2C50.6326 2 51.2622 2.01223 51.8886 2.03644L51.9272 1.03719ZM44.2359 1.33536L44.1195 0.342152C42.8109 0.495468 41.5177 0.699319 40.2419 0.951702L40.436 1.93269L40.63 2.91368C41.8545 2.67144 43.0959 2.47576 44.3522 2.32857L44.2359 1.33536ZM36.6934 2.82811L36.4224 1.86553C35.157 2.22175 33.9119 2.62653 32.6894 3.07772L33.0356 4.01587L33.3818 4.95402C34.5551 4.52101 35.75 4.13256 36.9644 3.7907L36.6934 2.82811ZM29.4809 5.48992L29.0616 4.58204C27.87 5.13234 26.7036 5.72815 25.5648 6.36726L26.0543 7.23931L26.5437 8.11136C27.6368 7.49786 28.7563 6.92596 29.9001 6.39779L29.4809 5.48992ZM22.7755 9.25269L22.2192 8.42173C21.1299 9.151 20.0709 9.92195 19.0443 10.7323L19.6639 11.5172L20.2836 12.3021C21.2692 11.524 22.286 10.7838 23.3319 10.0837L22.7755 9.25269ZM16.7389 14.0177L16.06 13.2836C15.0987 14.1725 14.1725 15.0987 13.2836 16.06L14.0177 16.7389L14.7519 17.4179C15.6055 16.4949 16.4949 15.6055 17.4179 14.7519L16.7389 14.0177ZM11.5172 19.6639L10.7323 19.0443C9.92195 20.0709 9.151 21.1299 8.42173 22.2192L9.2527 22.7755L10.0837 23.3319C10.7838 22.286 11.524 21.2692 12.3021 20.2836L11.5172 19.6639ZM7.23931 26.0543L6.36726 25.5648C5.72815 26.7036 5.13234 27.87 4.58204 29.0616L5.48992 29.4809L6.39779 29.9001C6.92596 28.7563 7.49786 27.6368 8.11136 26.5437L7.23931 26.0543ZM4.01587 33.0356L3.07772 32.6894C2.62652 33.9119 2.22175 35.157 1.86553 36.4224L2.82811 36.6934L3.7907 36.9644C4.13256 35.75 4.52101 34.5551 4.95402 33.3818L4.01587 33.0356ZM1.93269 40.436L0.951701 40.2419C0.699318 41.5177 0.495467 42.8109 0.342151 44.1195L1.33536 44.2359L2.32857 44.3522C2.47576 43.0959 2.67144 41.8545 2.91368 40.63L1.93269 40.436ZM0 50C0 49.3417 0.0127235 48.6863 0.037938 48.0341L1.03719 48.0728L2.03644 48.1114C2.01223 48.7378 2 49.3674 2 50C2 50.6326 2.01223 51.2622 2.03645 51.8886L1.03719 51.9272L0.0379384 51.9659C0.0127236 51.3137 0 50.6583 0 50ZM1.33536 55.7641L0.342152 55.8805C0.495468 57.1891 0.699319 58.4823 0.951702 59.7581L1.93269 59.564L2.91368 59.37C2.67144 58.1455 2.47576 56.9041 2.32857 55.6478L1.33536 55.7641ZM2.82811 63.3066L1.86553 63.5776C2.22175 64.843 2.62652 66.0881 3.07772 67.3106L4.01587 66.9644L4.95402 66.6182C4.52101 65.4449 4.13256 64.25 3.7907 63.0356L2.82811 63.3066ZM5.48992 70.5191L4.58204 70.9384C5.13234 72.13 5.72815 73.2964 6.36726 74.4352L7.23931 73.9457L8.11136 73.4563C7.49786 72.3632 6.92596 71.2437 6.39779 70.0999L5.48992 70.5191ZM9.25269 77.2245L8.42173 77.7808C9.151 78.8701 9.92195 79.9291 10.7323 80.9557L11.5172 80.3361L12.3021 79.7164C11.524 78.7308 10.7838 77.714 10.0837 76.6681L9.25269 77.2245ZM14.0177 83.2611L13.2836 83.94C14.1725 84.9013 15.0987 85.8275 16.06 86.7164L16.7389 85.9823L17.4179 85.2481C16.4949 84.3945 15.6055 83.5051 14.7519 82.5821L14.0177 83.2611ZM19.6639 88.4828L19.0443 89.2677C20.0709 90.078 21.1299 90.849 22.2192 91.5783L22.7755 90.7473L23.3319 89.9163C22.286 89.2162 21.2692 88.476 20.2836 87.6979L19.6639 88.4828ZM26.0543 92.7607L25.5648 93.6327C26.7036 94.2719 27.87 94.8677 29.0616 95.418L29.4809 94.5101L29.9001 93.6022C28.7563 93.074 27.6368 92.5021 26.5437 91.8886L26.0543 92.7607ZM33.0356 95.9841L32.6894 96.9223C33.9119 97.3735 35.157 97.7783 36.4224 98.1345L36.6934 97.1719L36.9644 96.2093C35.75 95.8674 34.5551 95.479 33.3818 95.046L33.0356 95.9841ZM44.1195 99.6579C42.8109 99.5045 41.5177 99.3007 40.2419 99.0483L40.436 98.0673L40.63 97.0863C41.8545 97.3286 43.0959 97.5242 44.3522 97.6714L44.2359 98.6646L44.1195 99.6579ZM48.0728 98.9628L48.0341 99.9621C48.6863 99.9873 49.3417 100 50 100C50.6583 100 51.3137 99.9873 51.9659 99.9621L51.9272 98.9628L51.8886 97.9636C51.2622 97.9878 50.6326 98 50 98C49.3674 98 48.7378 97.9878 48.1114 97.9636L48.0728 98.9628ZM55.7641 98.6646L55.8805 99.6578C57.1891 99.5045 58.4823 99.3007 59.7581 99.0483L59.564 98.0673L59.37 97.0863C58.1455 97.3286 56.9041 97.5242 55.6478 97.6714L55.7641 98.6646ZM63.3066 97.1719L63.5776 98.1345C64.843 97.7782 66.0881 97.3735 67.3106 96.9223L66.9644 95.9841L66.6182 95.046C65.4449 95.479 64.25 95.8674 63.0356 96.2093L63.3066 97.1719ZM70.5191 94.5101L70.9384 95.418C72.13 94.8677 73.2964 94.2719 74.4352 93.6327L73.9457 92.7607L73.4563 91.8886C72.3632 92.5021 71.2437 93.074 70.0999 93.6022L70.5191 94.5101ZM77.2245 90.7473L77.7808 91.5783C78.8701 90.849 79.9291 90.078 80.9557 89.2677L80.3361 88.4828L79.7164 87.6979C78.7308 88.476 77.714 89.2162 76.6681 89.9163L77.2245 90.7473ZM83.2611 85.9823L83.94 86.7164C84.9013 85.8275 85.8275 84.9013 86.7164 83.94L85.9823 83.2611L85.2481 82.5821C84.3945 83.5051 83.5051 84.3945 82.5821 85.2481L83.2611 85.9823ZM88.4828 80.3361L89.2677 80.9557C90.078 79.9291 90.849 78.8701 91.5783 77.7808L90.7473 77.2245L89.9163 76.6681C89.2162 77.714 88.476 78.7308 87.6979 79.7164L88.4828 80.3361ZM92.7607 73.9457L93.6327 74.4352C94.2719 73.2964 94.8677 72.13 95.418 70.9384L94.5101 70.5191L93.6022 70.0999C93.074 71.2437 92.5021 72.3632 91.8886 73.4563L92.7607 73.9457ZM95.9841 66.9644L96.9223 67.3106C97.3735 66.0881 97.7783 64.843 98.1345 63.5776L97.1719 63.3066L96.2093 63.0356C95.8674 64.25 95.479 65.4449 95.046 66.6182L95.9841 66.9644ZM99.6579 55.8805C99.5045 57.1891 99.3007 58.4823 99.0483 59.7581L98.0673 59.564L97.0863 59.37C97.3286 58.1455 97.5242 56.9041 97.6714 55.6478L98.6646 55.7641L99.6579 55.8805ZM61.7513 47.8208L66.8214 42.9583C69.4485 40.4388 69.5357 36.2666 67.0161 33.6394C64.4966 31.0123 60.3243 30.9251 57.6972 33.4447L48.5116 42.2542C45.8845 44.7738 45.7973 48.946 48.3169 51.5731C49.3153 52.6142 50.5733 53.2565 51.8919 53.4956C51.866 53.5219 51.8396 53.548 51.8127 53.5737L46.8213 58.3608C45.7018 57.7437 44.6555 56.9491 43.7241 55.9779C38.7718 50.8142 38.9432 42.6137 44.1068 37.6614L53.2924 28.8519C58.4561 23.8996 66.6567 24.071 71.6089 29.2347C76.5612 34.3983 76.3898 42.5989 71.2262 47.5512L62.0405 56.3607C61.3656 57.008 60.6387 57.5678 59.874 58.0404C61.929 55.006 62.5614 51.2824 61.7513 47.8208ZM38.1618 52.1792L33.0917 57.0417C30.4646 59.5612 30.3774 63.7335 32.8969 66.3606C35.4165 68.9877 39.5887 69.0749 42.2159 66.5553L51.4015 57.7458C54.0286 55.2262 54.1158 51.054 51.5962 48.4269C50.5978 47.3858 49.3397 46.7436 48.0212 46.5044C48.0471 46.4781 48.0735 46.452 48.1004 46.4263L53.0918 41.6392C54.2113 42.2563 55.2576 43.0509 56.189 44.0221C61.1413 49.1858 60.9699 57.3863 55.8062 62.3386L46.6206 71.1481C41.457 76.1004 33.2564 75.929 28.3041 70.7654C23.3519 65.6017 23.5233 57.4011 28.6869 52.4489L37.8725 43.6393C38.5475 42.992 39.2744 42.4322 40.0391 41.9596C37.9841 44.9941 37.3517 48.7176 38.1618 52.1792Z" fill="#CFCFCF"/>
</g>
<defs>
<clipPath id="clip0_1_6808">
<rect width="100" height="100" fill="white"/>
</clipPath>
</defs>
</svg>
