<svg width="100" height="100" viewBox="0 0 100 100" fill="none" xmlns="http://www.w3.org/2000/svg">
<g clip-path="url(#clip0_1_6801)">
<path fill-rule="evenodd" clip-rule="evenodd" d="M72.794 35H61.2001V36.247H59.9531V35H26.206C24.7115 35 23.5 36.2115 23.5 37.706V62.0101C23.5 63.5046 24.7115 64.7161 26.206 64.7161H72.794C74.2885 64.7161 75.5 63.5046 75.5 62.0101V37.706C75.5 36.2115 74.2885 35 72.794 35ZM61.2001 63.4688H59.9531V64.7158H61.2001V63.4688ZM59.9531 60.9883H61.2001V58.5192H59.9531V60.9883ZM59.9531 56.0377H61.2001V53.5686H59.9531V56.0377ZM59.9531 51.0871H61.2001V48.618H59.9531V51.0871ZM59.9531 46.1365H61.2001V43.6674H59.9531V46.1365ZM59.9531 41.1859H61.2001V38.7168H59.9531V41.1859ZM37.5 44C37.5 46.7614 35.2614 49 32.5 49C29.7386 49 27.5 46.7614 27.5 44C27.5 41.2386 29.7386 39 32.5 39C35.2614 39 37.5 41.2386 37.5 44Z" fill="#CFCFCF"/>
<circle cx="50" cy="50" r="49" stroke="#CFCFCF" stroke-width="2" stroke-dasharray="4 4"/>
</g>
<defs>
<clipPath id="clip0_1_6801">
<rect width="100" height="100" fill="white"/>
</clipPath>
</defs>
</svg>
