<svg width="96" height="96" viewBox="0 0 96 96" fill="none" xmlns="http://www.w3.org/2000/svg">
<g clip-path="url(#clip0_1_6800)">
<path fill-rule="evenodd" clip-rule="evenodd" d="M48 2.93002C23.1085 2.93002 2.93002 23.1085 2.93002 48C2.93002 72.8915 23.1085 93.07 48 93.07C72.8915 93.07 93.07 72.8915 93.07 48C93.07 23.1085 72.8915 2.93002 48 2.93002ZM0 48C0 21.4903 21.4903 0 48 0C74.5097 0 96 21.4903 96 48C96 74.5097 74.5097 96 48 96C21.4903 96 0 74.5097 0 48Z" fill="#CFCFCF"/>
<path d="M53.3977 22.6119C52.3322 21.3477 49.5064 20.7109 48.0008 20.7109C46.4952 20.7109 43.6694 21.3477 42.6039 22.6119C41.5385 23.8761 40.8976 25.4306 41.0134 27.3222L42.5576 54.5911C42.5576 55.5275 42.7043 56.3984 42.99 57.1944C43.2834 57.9904 43.6694 58.6833 44.1481 59.2639C44.6345 59.8539 45.2136 60.3221 45.8853 60.6686C46.5647 61.0244 47.2673 61.193 48.0008 61.193C48.7343 61.193 49.4369 61.015 50.1163 60.6686C50.788 60.3127 51.3671 59.8445 51.8535 59.2639C52.3322 58.6833 52.726 57.9904 53.0116 57.1944C53.305 56.3984 53.444 55.5275 53.444 54.5911L54.9882 27.3222C55.0963 25.4306 54.4554 23.8761 53.3977 22.6119Z" fill="#CFCFCF"/>
<path d="M48.005 64.9609C46.0206 64.9609 44.3537 65.6199 43.0142 66.9378C41.6747 68.2557 41 69.9284 41 71.9559C41 73.9834 41.6747 75.5953 43.0142 76.9436C44.3537 78.2919 46.0206 78.9609 48.005 78.9609C49.9894 78.9609 51.5868 78.2919 52.9561 76.9436C54.3253 75.5953 55 73.9428 55 71.9559C55 69.9689 54.3154 68.2557 52.9561 66.9378C51.5868 65.6199 49.9398 64.9609 48.005 64.9609Z" fill="#CFCFCF"/>
</g>
<defs>
<clipPath id="clip0_1_6800">
<rect width="96" height="96" fill="white"/>
</clipPath>
</defs>
</svg>
