<svg width="100" height="100" viewBox="0 0 100 100" fill="none" xmlns="http://www.w3.org/2000/svg">
<g clip-path="url(#clip0_1_6815)">
<path fill-rule="evenodd" clip-rule="evenodd" d="M32 24C30.8954 24 30 24.8954 30 26V74C30 75.1046 30.8954 76 32 76H68C69.1046 76 70 75.1046 70 74V26C70 24.8954 69.1046 24 68 24H32ZM47 30H35V34H47V30ZM35 38H65V40H35V38ZM65 44H35V46H65V44ZM35 50H65V52H35V50ZM65 56H35V70H65V56Z" fill="#CFCFCF"/>
<circle cx="50" cy="50" r="49" stroke="#CFCFCF" stroke-width="2" stroke-dasharray="4 4"/>
</g>
<defs>
<clipPath id="clip0_1_6815">
<rect width="100" height="100" fill="white"/>
</clipPath>
</defs>
</svg>
