<svg width="100" height="100" viewBox="0 0 100 100" fill="none" xmlns="http://www.w3.org/2000/svg">
<g clip-path="url(#clip0_1_6820)">
<circle cx="50" cy="50" r="49" stroke="#CFCFCF" stroke-width="2" stroke-dasharray="4 4"/>
<path fill-rule="evenodd" clip-rule="evenodd" d="M30 26C27.7909 26 26 27.7909 26 30V70C26 72.2091 27.7909 74 30 74H70C72.2091 74 74 72.2091 74 70V30C74 27.7909 72.2091 26 70 26H30ZM59.48 46.3454C60.223 45.528 60.1628 44.2631 59.3455 43.5201C58.5282 42.7771 57.2633 42.8374 56.5203 43.6547L48.1872 52.821L44.6276 47.8375C43.9856 46.9387 42.7365 46.7305 41.8377 47.3725C40.9389 48.0146 40.7307 49.2637 41.3727 50.1625L46.3727 57.1625C46.7241 57.6544 47.2791 57.961 47.8827 57.9966C48.4862 58.0321 49.0734 57.7927 49.48 57.3454L59.48 46.3454Z" fill="#CFCFCF"/>
</g>
<defs>
<clipPath id="clip0_1_6820">
<rect width="100" height="100" fill="white"/>
</clipPath>
</defs>
</svg>
