<svg width="24" height="24" viewBox="0 0 24 24" fill="none" xmlns="http://www.w3.org/2000/svg">
<path d="M16 6C16 8.20914 14.2091 10 12 10C9.79086 10 8 8.20914 8 6C8 3.79086 9.79086 2 12 2C14.2091 2 16 3.79086 16 6ZM14.5 6C14.5 4.61929 13.3807 3.5 12 3.5C10.6193 3.5 9.5 4.61929 9.5 6C9.5 7.38071 10.6193 8.5 12 8.5C13.3807 8.5 14.5 7.38071 14.5 6Z" fill="#AEAEAE"/>
<path d="M2 20.7059C2 15.3455 6.34547 11 11.7059 11H12.2941C17.6545 11 22 15.3455 22 20.7059C22 21.4206 21.4206 22 20.7059 22H3.29412C2.5794 22 2 21.4206 2 20.7059ZM3.50253 20.5H20.4975C20.3882 16.0632 16.7573 12.5 12.2941 12.5H11.7059C7.24273 12.5 3.61179 16.0632 3.50253 20.5Z" fill="#AEAEAE"/>
</svg>
