<svg width="24" height="24" viewBox="0 0 24 24" fill="none" xmlns="http://www.w3.org/2000/svg">
<path d="M11 6C11 7.65685 9.65686 9 8 9C6.34315 9 5 7.65685 5 6C5 4.34315 6.34315 3 8 3C9.65686 3 11 4.34315 11 6ZM9.5 6C9.5 5.17157 8.82843 4.5 8 4.5C7.17158 4.5 6.5 5.17157 6.5 6C6.5 6.82843 7.17158 7.5 8 7.5C8.82843 7.5 9.5 6.82843 9.5 6Z" fill="#2D62EA"/>
<path d="M18 8C18 9.65685 16.6569 11 15 11C13.3432 11 12 9.65685 12 8C12 6.34315 13.3432 5 15 5C16.6569 5 18 6.34315 18 8ZM16.5 8C16.5 7.17157 15.8284 6.5 15 6.5C14.1716 6.5 13.5 7.17157 13.5 8C13.5 8.82843 14.1716 9.5 15 9.5C15.8284 9.5 16.5 8.82843 16.5 8Z" fill="#2D62EA"/>
<path d="M7.47808 16.5C7.16938 17.2933 7 18.1563 7 19.0588C7 19.5786 7.42138 20 7.94118 20H21.0588C21.5786 20 22 19.5786 22 19.0588C22 15.1603 18.8397 12 14.9412 12H14.0588C13.5152 12 12.9859 12.0615 12.4776 12.1778C12.4365 11.9429 12.3395 11.718 12.1904 11.5235C11.2792 10.3351 9.89475 9.5 8.27382 9.5H7.68583C4.76329 9.5 2.73637 12.0951 2.50516 14.8757C2.47041 15.2937 2.61225 15.7071 2.89627 16.0158C3.1803 16.3244 3.58057 16.5 4 16.5H7.47808ZM14.9412 13.5C17.8226 13.5 20.192 15.6924 20.4723 18.5H8.52774C8.62196 17.5561 8.95227 16.6818 9.45877 15.937C9.49661 15.8896 9.53178 15.8398 9.56397 15.7876C10.5748 14.401 12.2116 13.5 14.0588 13.5H14.9412ZM8.29732 14.9796C8.2925 14.9864 8.2877 14.9932 8.2829 15H4C4.04436 14.4666 4.16721 13.961 4.35451 13.5C4.95591 12.0198 6.22167 11 7.68583 11H8.27382C8.79331 11 9.28783 11.1284 9.73656 11.3602C10.2194 11.6095 10.6491 11.9786 11 12.4362C10.5251 12.6068 10.0817 12.865 9.68289 13.1953C9.12009 13.6613 8.64603 14.2707 8.29732 14.9796Z" fill="#2D62EA"/>
</svg>
