<svg width="24" height="24" viewBox="0 0 24 24" fill="none" xmlns="http://www.w3.org/2000/svg">
<path d="M2.39943 11.0002C1.92954 11.0002 1.71914 10.4108 2.08281 10.1133L11.6821 2.25929C11.8663 2.1086 12.1312 2.1086 12.3153 2.25929L21.9146 10.1133C22.2783 10.4108 22.0679 11.0002 21.598 11.0002H2.39943ZM18.7966 9.50024L11.9987 3.93833L5.20084 9.50024H18.7966Z" fill="#2D62EA"/>
<path d="M1.99873 20.75C1.99873 20.3358 2.33451 20 2.74873 20H21.2487C21.6629 20 21.9987 20.3358 21.9987 20.75C21.9987 21.1642 21.6629 21.5 21.2487 21.5H2.74873C2.33451 21.5 1.99873 21.1642 1.99873 20.75Z" fill="#2D62EA"/>
<path d="M5.99873 13C5.44644 13 4.99873 13.4477 4.99873 14V17C4.99873 17.5523 5.44644 18 5.99873 18C6.55101 18 6.99873 17.5523 6.99873 17V14C6.99873 13.4477 6.55101 13 5.99873 13Z" fill="#2D62EA"/>
<path d="M10.9987 14C10.9987 13.4477 11.4464 13 11.9987 13C12.551 13 12.9987 13.4477 12.9987 14V17C12.9987 17.5523 12.551 18 11.9987 18C11.4464 18 10.9987 17.5523 10.9987 17V14Z" fill="#2D62EA"/>
<path d="M17.9987 13C17.4464 13 16.9987 13.4477 16.9987 14V17C16.9987 17.5523 17.4464 18 17.9987 18C18.551 18 18.9987 17.5523 18.9987 17V14C18.9987 13.4477 18.551 13 17.9987 13Z" fill="#2D62EA"/>
</svg>
