<svg width="24" height="24" viewBox="0 0 24 24" fill="none" xmlns="http://www.w3.org/2000/svg">
<path d="M8.99805 20.9981H6.09669C5.82054 20.9981 5.59669 20.7742 5.59669 20.4981V12.0002H2.39943C1.92954 12.0002 1.71914 11.4108 2.08281 11.1132L11.6821 3.25926C11.8663 3.10857 12.1312 3.10857 12.3153 3.25926L21.9146 11.1132C22.2783 11.4108 22.0679 12.0002 21.598 12.0002H18.4017V20.4981C18.4017 20.7742 18.1778 20.9981 17.9017 20.9981H14.998V21H8.99805V20.9981ZM7.09669 10.5002V19.4981H8.99805V15C8.99805 13.8954 10.3412 13 11.998 13C13.6549 13 14.998 13.8954 14.998 15V19.4981H16.9017V10.5002H18.7966L11.9987 4.9383L5.20084 10.5002H7.09669ZM13.498 19.4981V15.0293C13.4821 14.9996 13.4311 14.9297 13.2873 14.8339C13.0231 14.6577 12.5716 14.5 11.998 14.5C11.4245 14.5 10.973 14.6577 10.7088 14.8339C10.565 14.9297 10.514 14.9996 10.498 15.0293V19.4981H13.498ZM13.5044 15.0452C13.5044 15.0452 13.5026 15.0422 13.5012 15.0356C13.5041 15.0418 13.5044 15.0452 13.5044 15.0452ZM10.4917 15.0452C10.4917 15.0452 10.492 15.0418 10.4949 15.0356C10.4935 15.0422 10.4917 15.0452 10.4917 15.0452Z" fill="#2D62EA"/>
</svg>
