<svg width="24" height="24" viewBox="0 0 24 24" fill="none" xmlns="http://www.w3.org/2000/svg">
<path fill-rule="evenodd" clip-rule="evenodd" d="M11 4C9.89543 4 9 4.89543 9 6H4.75C4.33579 6 4 6.33579 4 6.75C4 7.16421 4.33579 7.5 4.75 7.5H6V18C6 19.1046 6.89543 20 8 20H16C17.1046 20 18 19.1046 18 18V7.5H19.25C19.6642 7.5 20 7.16421 20 6.75C20 6.33579 19.6642 6 19.25 6H15C15 4.89543 14.1046 4 13 4H11ZM7.5 7.5H16.5V18C16.5 18.2761 16.2761 18.5 16 18.5H8C7.72386 18.5 7.5 18.2761 7.5 18V7.5Z" fill="#1D1D1D"/>
</svg>
