<svg width="24" height="24" viewBox="0 0 24 24" fill="none" xmlns="http://www.w3.org/2000/svg">
<path d="M6 5.5C5.72386 5.5 5.5 5.72386 5.5 6C5.5 6.27614 5.72386 6.5 6 6.5H10C10.2761 6.5 10.5 6.27614 10.5 6C10.5 5.72386 10.2761 5.5 10 5.5H6Z" fill="black"/>
<path d="M5.5 9C5.5 8.72386 5.72386 8.5 6 8.5H15C15.2761 8.5 15.5 8.72386 15.5 9C15.5 9.27614 15.2761 9.5 15 9.5H6C5.72386 9.5 5.5 9.27614 5.5 9Z" fill="black"/>
<path d="M6 11.5C5.72386 11.5 5.5 11.7239 5.5 12C5.5 12.2761 5.72386 12.5 6 12.5H15C15.2761 12.5 15.5 12.2761 15.5 12C15.5 11.7239 15.2761 11.5 15 11.5H6Z" fill="black"/>
<path d="M3 2.25C2.58579 2.25 2.25 2.58579 2.25 3V16C2.25 16.4142 2.58579 16.75 3 16.75H14.6893L18.4697 20.5303C18.708 20.7687 19.0762 20.8187 19.3695 20.6527C19.6629 20.4866 19.8094 20.1451 19.7276 19.8181L18.9606 16.75H20C20.4142 16.75 20.75 16.4142 20.75 16V3C20.75 2.58579 20.4142 2.25 20 2.25H3ZM3.75 15.25V3.75H19.25V15.25H18C17.769 15.25 17.551 15.3564 17.4088 15.5384C17.2667 15.7205 17.2164 15.9578 17.2724 16.1819L17.6157 17.555L15.5303 15.4697C15.3897 15.329 15.1989 15.25 15 15.25H3.75Z" fill="black"/>
</svg>
