<svg width="24" height="24" viewBox="0 0 24 24" fill="none" xmlns="http://www.w3.org/2000/svg">
<path d="M8.5 8C8.22386 8 8 8.22386 8 8.5C8 8.77614 8.22386 9 8.5 9H11.5C11.7761 9 12 8.77614 12 8.5C12 8.22386 11.7761 8 11.5 8H8.5Z" fill="#1D1D1D"/>
<path d="M8 11.5C8 11.2239 8.22386 11 8.5 11H15.5C15.7761 11 16 11.2239 16 11.5C16 11.7761 15.7761 12 15.5 12H8.5C8.22386 12 8 11.7761 8 11.5Z" fill="#1D1D1D"/>
<path d="M8.5 14C8.22386 14 8 14.2239 8 14.5C8 14.7761 8.22386 15 8.5 15H15.5C15.7761 15 16 14.7761 16 14.5C16 14.2239 15.7761 14 15.5 14H8.5Z" fill="#1D1D1D"/>
<path d="M15.5858 4H6C5.44771 4 5 4.44772 5 5V19C5 19.5523 5.44772 20 6 20H18C18.5523 20 19 19.5523 19 19V7.41421C19 7.149 18.8946 6.89464 18.7071 6.70711L16.2929 4.29289C16.1054 4.10536 15.851 4 15.5858 4ZM6.5 5.5H14.25V8C14.25 8.41421 14.5858 8.75 15 8.75H17.5V18.5H6.5V5.5ZM15.75 5.87132L17.1287 7.25H15.75V5.87132Z" fill="#1D1D1D"/>
</svg>
