<svg width="24" height="24" viewBox="0 0 24 24" fill="none" xmlns="http://www.w3.org/2000/svg">
<path d="M18.4697 2.46967C18.7626 2.17678 19.2375 2.17678 19.5303 2.46967L21.5303 4.46967C21.8232 4.76256 21.8232 5.23744 21.5303 5.53033L12.5304 14.5303C12.4733 14.5873 12.4075 14.6348 12.3354 14.6708L8.33543 16.6708C8.04669 16.8152 7.69796 16.7586 7.46969 16.5303C7.24142 16.3021 7.18483 15.9533 7.3292 15.6646L9.3292 11.6646C9.36525 11.5925 9.41269 11.5267 9.46969 11.4697L18.4697 2.46967Z" fill="black"/>
<path d="M4 3.25C3.58579 3.25 3.25 3.58579 3.25 4V20C3.25 20.4142 3.58579 20.75 4 20.75H20C20.4142 20.75 20.75 20.4142 20.75 20V13C20.75 12.5858 20.4142 12.25 20 12.25C19.5858 12.25 19.25 12.5858 19.25 13V19.25H4.75V4.75H11C11.4142 4.75 11.75 4.41421 11.75 4C11.75 3.58579 11.4142 3.25 11 3.25H4Z" fill="black"/>
</svg>
