<svg width="24" height="24" viewBox="0 0 24 24" fill="none" xmlns="http://www.w3.org/2000/svg">
<path d="M8 11C9.30622 11 10.4175 10.1652 10.8293 9H20C20.5523 9 21 8.55228 21 8C21 7.44772 20.5523 7 20 7H10.8293C10.4175 5.83481 9.30622 5 8 5C6.69378 5 5.58254 5.83481 5.17071 7H4C3.44772 7 3 7.44772 3 8C3 8.55228 3.44772 9 4 9H5.17071C5.58254 10.1652 6.69378 11 8 11ZM8 9C7.44772 9 7 8.55228 7 8C7 7.44772 7.44772 7 8 7C8.55228 7 9 7.44772 9 8C9 8.55228 8.55228 9 8 9Z" fill="black"/>
<path d="M16 13C14.6938 13 13.5825 13.8348 13.1707 15L4 15C3.44772 15 3 15.4477 3 16C3 16.5523 3.44772 17 4 17L13.1707 17C13.5825 18.1652 14.6938 19 16 19C17.3062 19 18.4175 18.1652 18.8293 17H20C20.5523 17 21 16.5523 21 16C21 15.4477 20.5523 15 20 15H18.8293C18.4175 13.8348 17.3062 13 16 13ZM16 15C16.5523 15 17 15.4477 17 16C17 16.5523 16.5523 17 16 17C15.4477 17 15 16.5523 15 16C15 15.4477 15.4477 15 16 15Z" fill="black"/>
</svg>
