<svg width="24" height="24" viewBox="0 0 24 24" fill="none" xmlns="http://www.w3.org/2000/svg">
<path d="M19.9 9.3H14.8L13.1 3.8C12.9 3.2 12.3 2.9 11.7 3C11.6 3 11.5 3.1 11.4 3.1C11.3 3.2 11.2 3.2 11.2 3.3C11.2 3.3 11.2 3.3 11.1 3.4C11 3.5 11 3.7 10.9 3.8L9.2 9.3H4.1C3.5 9.3 3.2 9.7 3 10.1C2.9 10.5 3 11 3.4 11.4L7.6 14.3L6 19.5C5.8 20.3 6.4 21 7.1 21C7.3 21 7.6 20.9 7.8 20.8L12 17.6L12.1 17.7L16.2 20.8C17.1 21.5 18.3 20.6 18 19.6L16.4 14.4L20.6 11.5C21.4 10.7 21 9.3 19.9 9.3ZM19.9 10.5L15.2 13.9L17.1 19.8V19.9C17.1 19.9 17.1 19.9 17 20H16.9C16.9 20 16.9 20 16.8 20L12.1 16.4V4C12.1 4 12.1 4 12.1 4.1L13.7 9.4L13.9991 10.1L19.8 10.3C19.9 10.3 19.9 10.3 19.9 10.3C19.9 10.3 19.9 10.3 19.9 10.4C20 10.4 20 10.5 19.9 10.5C20 10.5 20 10.5 19.9 10.5Z" fill="#6691FF"/>
</svg>
