<svg width="24" height="24" viewBox="0 0 24 24" fill="none" xmlns="http://www.w3.org/2000/svg">
<path d="M11.992 4C7.576 4 4 7.584 4 12C4 16.416 7.576 20 11.992 20C16.416 20 20 16.416 20 12C20 7.584 16.416 4 11.992 4ZM12 18.4C8.464 18.4 5.6 15.536 5.6 12C5.6 8.464 8.464 5.6 12 5.6C15.536 5.6 18.4 8.464 18.4 12C18.4 15.536 15.536 18.4 12 18.4Z" fill="#AEAEAE"/>
<path d="M12.6221 13.5732H11.4551C11.4583 13.277 11.4827 13.0231 11.5283 12.8115C11.5771 12.5999 11.6569 12.4095 11.7676 12.2402C11.8783 12.0677 12.028 11.8919 12.2168 11.7129C12.3665 11.5729 12.5 11.4411 12.6172 11.3174C12.7376 11.1904 12.832 11.0586 12.9004 10.9219C12.9688 10.7819 13.0029 10.624 13.0029 10.4482C13.0029 10.2497 12.9704 10.0837 12.9053 9.9502C12.8434 9.81673 12.7507 9.71582 12.627 9.64746C12.5065 9.57585 12.3551 9.54004 12.1729 9.54004C12.0231 9.54004 11.8815 9.57096 11.748 9.63281C11.6146 9.69466 11.5072 9.79069 11.4258 9.9209C11.3444 10.0479 11.3005 10.2139 11.2939 10.4189H10C10.0098 9.99251 10.1107 9.6377 10.3027 9.35449C10.4948 9.06803 10.7536 8.85482 11.0791 8.71484C11.4046 8.57161 11.7692 8.5 12.1729 8.5C12.6188 8.5 12.9997 8.57487 13.3154 8.72461C13.6344 8.87109 13.877 9.08594 14.043 9.36914C14.2122 9.65234 14.2969 9.99414 14.2969 10.3945C14.2969 10.681 14.2415 10.9382 14.1309 11.166C14.0202 11.3906 13.8737 11.6006 13.6914 11.7959C13.5091 11.9912 13.3122 12.1882 13.1006 12.3867C12.915 12.5527 12.7897 12.7301 12.7246 12.9189C12.6595 13.1077 12.6253 13.3258 12.6221 13.5732ZM11.333 15.0918C11.333 14.8965 11.3981 14.7337 11.5283 14.6035C11.6618 14.4733 11.8408 14.4082 12.0654 14.4082C12.29 14.4082 12.4674 14.4733 12.5977 14.6035C12.7311 14.7337 12.7979 14.8965 12.7979 15.0918C12.7979 15.2806 12.7311 15.4401 12.5977 15.5703C12.4674 15.7005 12.29 15.7656 12.0654 15.7656C11.8408 15.7656 11.6618 15.7005 11.5283 15.5703C11.3981 15.4401 11.333 15.2806 11.333 15.0918Z" fill="#AEAEAE"/>
</svg>
