<svg width="24" height="24" viewBox="0 0 24 24" fill="none" xmlns="http://www.w3.org/2000/svg">
<path d="M10.5 8C10.2239 8 10 8.22386 10 8.5C10 8.77614 10.2239 9 10.5 9H13.5C13.7761 9 14 8.77614 14 8.5C14 8.22386 13.7761 8 13.5 8H10.5Z" fill="black"/>
<path d="M10.5 13C10.2239 13 10 13.2239 10 13.5C10 13.7761 10.2239 14 10.5 14H13.5C13.7761 14 14 13.7761 14 13.5C14 13.2239 13.7761 13 13.5 13H10.5Z" fill="black"/>
<path d="M9 10.5C8.72386 10.5 8.5 10.7239 8.5 11C8.5 11.2761 8.72386 11.5 9 11.5H15C15.2761 11.5 15.5 11.2761 15.5 11C15.5 10.7239 15.2761 10.5 15 10.5H9Z" fill="black"/>
<path d="M10.0911 17.8181L5.97353 19.5828C5.58518 19.7492 5.17827 19.3888 5.29657 18.9832L6.19741 15.8946C6.20807 15.858 6.19695 15.8186 6.16908 15.7926C4.824 14.5402 4 12.8543 4 11C4 7.13401 7.58172 4 12 4C16.4183 4 20 7.13401 20 11C20 14.866 16.4183 18 12 18C11.3636 18 10.7446 17.935 10.1511 17.8121C10.1309 17.8079 10.11 17.81 10.0911 17.8181ZM12 16.5C15.7843 16.5 18.5 13.8557 18.5 11C18.5 8.14431 15.7843 5.5 12 5.5C8.21574 5.5 5.5 8.14431 5.5 11C5.5 12.3906 6.11447 13.6922 7.19126 14.6948C7.62816 15.1017 7.80904 15.7261 7.63741 16.3146L7.3297 17.3696L9.50019 16.4394C9.80357 16.3094 10.1371 16.2774 10.4552 16.3433C10.9487 16.4454 11.4659 16.5 12 16.5Z" fill="black"/>
</svg>
