<svg width="24" height="24" viewBox="0 0 24 24" fill="none" xmlns="http://www.w3.org/2000/svg">
<path d="M14.7755 9.29301L13.0965 3.80752C12.7653 2.73083 11.2347 2.73083 10.9149 3.80752L9.22448 9.29301H4.14173C3.03381 9.29301 2.57693 10.7097 3.47926 11.3444L7.63683 14.2911L6.0035 19.516C5.67227 20.57 6.90583 21.42 7.78532 20.7513L12 17.5779L16.2147 20.7627C17.0942 21.4313 18.3277 20.5813 17.9965 19.5273L16.3632 14.3025L20.5207 11.3557C21.4231 10.7097 20.9662 9.30434 19.8583 9.30434H14.7755V9.29301ZM12.1407 4.10156L13.7755 9.44262L14 10.293L19.8583 10.3043C19.9148 10.3043 19.9369 10.3194 19.9466 10.3269C19.9623 10.3389 19.981 10.3618 19.992 10.3958C20.003 10.4299 20.001 10.4583 19.9958 10.4754C19.9929 10.4853 19.9849 10.5092 19.9399 10.5417L19.9386 10.5426L15.1918 13.907L17.042 19.8257L17.0425 19.8271C17.0575 19.875 17.0502 19.8947 17.047 19.9032C17.0408 19.9193 17.0242 19.9454 16.9908 19.9685C16.9574 19.9916 16.9243 19.9998 16.9016 20C16.8867 20.0001 16.8613 19.9981 16.8199 19.9666L12.0011 16.3253L7.18381 19.9524L7.18008 19.9553C7.13866 19.9868 7.11327 19.9888 7.09837 19.9887C7.07568 19.9885 7.04261 19.9803 7.0092 19.9572C6.97579 19.9341 6.95919 19.908 6.95303 19.8918C6.94983 19.8834 6.94246 19.8636 6.9575 19.8158L8.80819 13.8957L4.05751 10.5285L4.05458 10.5265C4.01266 10.497 4.00639 10.4763 4.00397 10.4683C3.99923 10.4525 3.99674 10.4237 4.00831 10.3878C4.01987 10.352 4.0395 10.3278 4.05574 10.3153C4.06588 10.3074 4.08719 10.293 4.14173 10.293H9.96272L11.8706 4.10202L11.8735 4.09226C11.8885 4.04174 11.9068 4.02862 11.9149 4.02302C11.93 4.01247 11.9597 4 12.0014 4C12.0431 4 12.0749 4.01251 12.093 4.02498C12.1042 4.0327 12.1245 4.04902 12.1407 4.10156Z" fill="#AEAEAE"/>
</svg>
