<svg width="32" height="32" viewBox="0 0 32 32" fill="none" xmlns="http://www.w3.org/2000/svg">
<path d="M16 2.66667C8.63999 2.66667 2.66666 8.64 2.66666 16C2.66666 23.36 8.63999 29.3333 16 29.3333C23.36 29.3333 29.3333 23.36 29.3333 16C29.3333 8.64 23.36 2.66667 16 2.66667ZM16 26.6667C10.12 26.6667 5.33332 21.88 5.33332 16C5.33332 10.12 10.12 5.33333 16 5.33333C21.88 5.33333 26.6667 10.12 26.6667 16C26.6667 21.88 21.88 26.6667 16 26.6667ZM12.6667 22L22 16L12.6667 10V22Z" fill="#EBF1FF"/>
</svg>
