<svg width="24" height="24" viewBox="0 0 24 24" fill="none" xmlns="http://www.w3.org/2000/svg">
<circle cx="12" cy="12" r="10" fill="white"/>
<path fill-rule="evenodd" clip-rule="evenodd" d="M21 12C21 16.9706 16.9706 21 12 21C7.02944 21 3 16.9706 3 12C3 7.02944 7.02944 3 12 3C16.9706 3 21 7.02944 21 12ZM22 12C22 17.5228 17.5228 22 12 22C6.47715 22 2 17.5228 2 12C2 6.47715 6.47715 2 12 2C17.5228 2 22 6.47715 22 12ZM16.3536 7.64645C16.5488 7.84171 16.5488 8.15829 16.3536 8.35355L12.7071 12L16.3536 15.6464C16.5488 15.8417 16.5488 16.1583 16.3536 16.3536C16.1583 16.5488 15.8417 16.5488 15.6464 16.3536L12 12.7071L8.35355 16.3536C8.15829 16.5488 7.84171 16.5488 7.64645 16.3536C7.45118 16.1583 7.45118 15.8417 7.64645 15.6464L11.2929 12L7.64645 8.35355C7.45118 8.15829 7.45118 7.84171 7.64645 7.64645C7.84171 7.45118 8.15829 7.45118 8.35355 7.64645L12 11.2929L15.6464 7.64645C15.8417 7.45118 16.1583 7.45118 16.3536 7.64645Z" fill="#505050"/>
</svg>
