<svg width="24" height="24" viewBox="0 0 24 24" fill="none" xmlns="http://www.w3.org/2000/svg">
<g clip-path="url(#clip0_1_6537)">
<path d="M12.4521 8.51857H11.0944V13.8678L15.3937 16.4086L16.0726 15.312L12.4521 13.1991V8.51857ZM16.8301 3L21 6.42793L19.8415 7.79643L15.6689 4.37028L16.8301 3ZM7.16895 3L8.32931 4.36939L4.15855 7.79643L3 6.42704L7.16895 3ZM11.9995 4.95245C7.50113 4.95245 3.85352 8.54532 3.85352 12.9762C3.85352 17.4071 7.50113 21 11.9995 21C16.498 21 20.1456 17.4071 20.1456 12.9762C20.1456 8.54532 16.498 4.95245 11.9995 4.95245ZM11.9995 19.2169C8.50581 19.2169 5.66375 16.4175 5.66375 12.9762C5.66375 9.53492 8.50581 6.73551 11.9995 6.73551C15.4933 6.73551 18.3353 9.53492 18.3353 12.9762C18.3353 16.4175 15.4933 19.2169 11.9995 19.2169Z" fill="#1D1D1D"/>
<path d="M12.4521 8.51857H11.0944V13.8678L15.3937 16.4086L16.0726 15.312L12.4521 13.1991V8.51857ZM16.8301 3L21 6.42793L19.8415 7.79643L15.6689 4.37028L16.8301 3ZM7.16895 3L8.32931 4.36939L4.15855 7.79643L3 6.42704L7.16895 3ZM11.9995 4.95245C7.50113 4.95245 3.85352 8.54532 3.85352 12.9762C3.85352 17.4071 7.50113 21 11.9995 21C16.498 21 20.1456 17.4071 20.1456 12.9762C20.1456 8.54532 16.498 4.95245 11.9995 4.95245ZM11.9995 19.2169C8.50581 19.2169 5.66375 16.4175 5.66375 12.9762C5.66375 9.53492 8.50581 6.73551 11.9995 6.73551C15.4933 6.73551 18.3353 9.53492 18.3353 12.9762C18.3353 16.4175 15.4933 19.2169 11.9995 19.2169Z" fill="#1D1D1D"/>
</g>
<defs>
<clipPath id="clip0_1_6537">
<rect width="24" height="24" fill="white"/>
</clipPath>
</defs>
</svg>
