<svg width="24" height="24" viewBox="0 0 24 24" fill="none" xmlns="http://www.w3.org/2000/svg">
<path d="M10 9.15848V14.8415C10 15.0344 10 15.1309 10.0167 15.1938C10.0909 15.474 10.3872 15.6326 10.6615 15.5389C10.7232 15.5179 10.8034 15.4644 10.9639 15.3574L15.2262 12.5159C15.3589 12.4274 15.4253 12.3832 15.4655 12.3397C15.643 12.148 15.643 11.852 15.4655 11.6603C15.4253 11.6168 15.3589 11.5726 15.2262 11.4841L10.9639 8.64261C10.8034 8.53561 10.7232 8.4821 10.6615 8.46107C10.3872 8.36742 10.0909 8.52596 10.0167 8.80617C10 8.86913 10 8.96558 10 9.15848Z" fill="black"/>
<path d="M3 4C3 3.44772 3.44772 3 4 3H20C20.5523 3 21 3.44772 21 4V20C21 20.5523 20.5523 21 20 21H4C3.44772 21 3 20.5523 3 20V4ZM4.5 19.5H19.5V4.5H4.5V19.5Z" fill="black"/>
</svg>
