<svg width="24" height="24" viewBox="0 0 24 24" fill="none" xmlns="http://www.w3.org/2000/svg">
<path d="M4.70482 8.74307C4.56292 8.35392 4.13242 8.15349 3.74327 8.29539C3.35412 8.43729 3.15369 8.86779 3.29559 9.25694C5.05597 14.0845 9.86327 14.8977 12.0308 14.7292C17.2002 14.7151 19.9513 11.1365 20.6963 9.27922C20.8505 8.89478 20.6639 8.45812 20.2794 8.30392C19.895 8.14971 19.4583 8.33635 19.3041 8.72079C18.7172 10.1839 16.411 13.2292 12.0002 13.2292C11.9795 13.2292 11.9588 13.2301 11.9381 13.2318C10.0902 13.3854 6.13585 12.6675 4.70482 8.74307Z" fill="black"/>
<path d="M12.5002 16C12.5002 15.7239 12.2763 15.5 12.0002 15.5C11.7241 15.5 11.5002 15.7239 11.5002 16V18C11.5002 18.2761 11.7241 18.5 12.0002 18.5C12.2763 18.5 12.5002 18.2761 12.5002 18V16Z" fill="black"/>
<path d="M6.35376 14.6465C6.54902 14.8417 6.54902 15.1583 6.35376 15.3536L4.35376 17.3536C4.1585 17.5488 3.84191 17.5488 3.64665 17.3536C3.45139 17.1583 3.45139 16.8417 3.64665 16.6465L5.64665 14.6465C5.84191 14.4512 6.1585 14.4512 6.35376 14.6465Z" fill="black"/>
<path d="M18.3538 14.6465C18.1585 14.4512 17.8419 14.4512 17.6467 14.6465C17.4514 14.8417 17.4514 15.1583 17.6467 15.3536L19.6467 17.3536C19.8419 17.5488 20.1585 17.5488 20.3538 17.3536C20.549 17.1583 20.549 16.8417 20.3538 16.6465L18.3538 14.6465Z" fill="black"/>
</svg>
