<svg width="54" height="18" viewBox="0 0 54 18" fill="none" xmlns="http://www.w3.org/2000/svg">
<path d="M36.0146 0C35.8691 0 35.751 0.118297 35.751 0.264224V4.83547L37.6006 2.9859V0.264224C37.6006 0.118297 37.4814 0 37.3359 0H36.0146Z" fill="#2D62EA"/>
<path d="M44.168 4.82837H53.8535C53.9346 4.82837 54 4.89389 54 4.97471V6.62941C54 6.71023 53.9346 6.77575 53.8535 6.77575H50.0811V17.361C50.0811 17.4418 50.0156 17.5073 49.9346 17.5073H48.0713C47.9902 17.5073 47.9238 17.4418 47.9238 17.361V6.77575H44.1699C44.0879 6.77575 44.0225 6.71032 44.0225 6.62955L44.0205 4.97485C44.0205 4.89398 44.0859 4.82837 44.168 4.82837Z" fill="#2D62EA"/>
<path fill-rule="evenodd" clip-rule="evenodd" d="M0 4.97734C0 4.89652 0.0664062 4.831 0.147461 4.831H5.43848C6.3125 4.831 7.02734 4.95976 7.5791 5.21338C8.13184 5.46894 8.55664 5.78889 8.85645 6.17126C9.15625 6.55364 9.35938 6.97308 9.46973 7.42569C9.57812 7.87829 9.63379 8.29578 9.63379 8.68011C9.63379 9.06444 9.58008 9.47802 9.46973 9.92673C9.35938 10.3735 9.15625 10.789 8.85645 11.1733C8.55664 11.5557 8.13184 11.8737 7.5791 12.1234C7.02539 12.3731 6.3125 12.498 5.43848 12.498H2.15723V17.3631C2.15723 17.4439 2.0918 17.5095 2.01074 17.5095H0.147461C0.0664062 17.5095 0 17.4439 0 17.3631V4.97734ZM2.15723 10.7207H5.31836C5.56055 10.7207 5.80762 10.6856 6.06152 10.6154C6.31445 10.5452 6.5459 10.432 6.76074 10.2759C6.97363 10.1199 7.14551 9.90917 7.2793 9.6497C7.41016 9.38828 7.47852 9.06053 7.47852 8.6645C7.47852 8.26847 7.41992 7.92121 7.30664 7.65394C7.19043 7.38667 7.03516 7.17402 6.83984 7.01795C6.64453 6.86188 6.4209 6.75458 6.16699 6.69605C5.91406 6.63753 5.64355 6.60826 5.35547 6.60826H2.15723V10.7207Z" fill="#2D62EA"/>
<path fill-rule="evenodd" clip-rule="evenodd" d="M13.75 17.511C13.0498 17.511 12.4258 17.401 11.8779 17.1809C11.3291 16.9608 10.8662 16.6577 10.4893 16.2698C10.1094 15.8838 9.82324 15.4219 9.62598 14.8843C9.42871 14.3467 9.33008 13.7568 9.33008 13.1127C9.33008 12.4687 9.42871 11.8932 9.62598 11.3574C9.82324 10.8198 10.1113 10.3579 10.4893 9.97186C10.8662 9.58579 11.3291 9.2827 11.8779 9.06081C12.4258 8.84071 13.0498 8.73066 13.75 8.73066C14.4492 8.73066 15.0732 8.84071 15.6221 9.06081C16.1699 9.2809 16.6328 9.58398 17.0098 9.97186C17.3877 10.3579 17.6758 10.8198 17.873 11.3574C18.0703 11.895 18.1689 12.4795 18.1689 13.1127C18.1689 13.7459 18.0703 14.3485 17.873 14.8843C17.6758 15.4219 17.3877 15.8838 17.0098 16.2698C16.6309 16.6559 16.168 16.9608 15.6221 17.1809C15.0752 17.401 14.4492 17.511 13.75 17.511ZM13.75 16.0606C14.1787 16.0606 14.5518 15.974 14.8672 15.8026C15.1836 15.6312 15.4434 15.4057 15.6465 15.1261C15.8496 14.8464 15.999 14.5325 16.0957 14.1843C16.1904 13.8362 16.2402 13.4789 16.2402 13.1127C16.2402 12.7465 16.1924 12.4037 16.0957 12.0501C15.999 11.6965 15.8516 11.3808 15.6465 11.1084C15.4434 10.8342 15.1836 10.6123 14.8672 10.4391C14.5498 10.2677 14.1787 10.1811 13.75 10.1811C13.3213 10.1811 12.9473 10.2677 12.6328 10.4391C12.3154 10.6105 12.0557 10.8342 11.8525 11.1084C11.6494 11.3826 11.5 11.6965 11.4033 12.0501C11.3066 12.4037 11.2588 12.7591 11.2588 13.1127C11.2588 13.4663 11.3066 13.8343 11.4033 14.1843C11.498 14.5343 11.6484 14.8482 11.8525 15.1261C12.0557 15.4057 12.3154 15.6312 12.6328 15.8026C12.9492 15.974 13.3213 16.0606 13.75 16.0606Z" fill="#2D62EA"/>
<path d="M19.2988 8.73066C19.2178 8.73066 19.1514 8.79618 19.1514 8.877V17.3647C19.1514 17.4455 19.2178 17.511 19.2988 17.511H20.9688C21.0498 17.511 21.1152 17.4455 21.1152 17.3647V8.877C21.1152 8.79618 21.0498 8.73066 20.9688 8.73066H19.2988Z" fill="#2D62EA"/>
<path d="M24.4521 9.82693V8.64862C24.4521 8.56779 24.3857 8.50228 24.3047 8.50228H22.7393C22.6582 8.50228 22.5918 8.56779 22.5918 8.64862V17.3632C22.5918 17.444 22.6582 17.5095 22.7393 17.5095H24.4131C24.4941 17.5095 24.5596 17.444 24.5596 17.3632V12.1953C24.5596 11.8715 24.6104 11.5632 24.7148 11.2725C24.8174 10.9838 24.9619 10.7302 25.1455 10.5156C25.3291 10.301 25.5537 10.1313 25.8184 10.0103C26.0811 9.88741 26.3809 9.82693 26.7158 9.82693C27.3037 9.82693 27.7344 9.9869 28.0107 10.3069C28.2871 10.6248 28.4365 11.1399 28.46 11.8481V17.3632C28.46 17.444 28.5254 17.5095 28.6064 17.5095H30.2803C30.3613 17.5095 30.4277 17.444 30.4277 17.3632V11.3252C30.4277 10.3029 30.1455 9.53625 29.5811 9.02512C29.0166 8.51398 28.2451 8.25842 27.2666 8.25842C26.6787 8.25842 26.1436 8.40083 25.6602 8.68566C25.1768 8.97049 24.7861 9.36262 24.4863 9.86205L24.4521 9.82693Z" fill="#2D62EA"/>
<path d="M21.1143 5.80462C21.1143 6.34343 20.6748 6.78022 20.1328 6.78022C19.5898 6.78022 19.1504 6.34343 19.1504 5.80462C19.1504 5.26582 19.5898 4.82903 20.1328 4.82903C20.6748 4.82903 21.1143 5.26582 21.1143 5.80462Z" fill="#2D62EA"/>
<path d="M42.1709 6.68513C42.3164 6.68513 42.4355 6.56684 42.4355 6.42091V5.09979C42.4355 4.95386 42.3164 4.83557 42.1709 4.83557L39.4492 4.83557L37.5996 6.68513H42.1709Z" fill="#2D62EA"/>
<path d="M37.3359 11.5207C37.4814 11.5207 37.6006 11.4024 37.6006 11.2565L37.5996 6.68513L35.751 8.53484V11.2565C35.751 11.4024 35.8691 11.5207 36.0146 11.5207H37.3359Z" fill="#2D62EA"/>
<path d="M31.1797 4.83561C31.0332 4.83561 30.915 4.9539 30.915 5.09983V6.42095C30.915 6.56687 31.0332 6.68517 31.1797 6.68517H33.9014L35.751 4.83547L31.1797 4.83561Z" fill="#2D62EA"/>
<path d="M36.1094 4.96781C35.9844 4.96781 35.8828 5.06921 35.8828 5.19429V6.32667C35.8828 6.45175 35.9844 6.55315 36.1094 6.55315H37.2422C37.3672 6.55315 37.4678 6.45175 37.4678 6.32667V5.19429C37.4678 5.06921 37.3672 4.96781 37.2422 4.96781H36.1094Z" fill="#2D62EA"/>
</svg>
