<svg width="40" height="40" viewBox="0 0 40 40" fill="none" xmlns="http://www.w3.org/2000/svg">
<rect width="40" height="40" rx="20" fill="#F4F4F4"/>
<path fill-rule="evenodd" clip-rule="evenodd" d="M10 12.25C10 12.9404 9.44036 13.5 8.75 13.5C8.05964 13.5 7.5 12.9404 7.5 12.25C7.5 11.5596 8.05964 11 8.75 11C9.44036 11 10 11.5596 10 12.25ZM26 15C26.2761 15 26.5 15.2239 26.5 15.5V26.5C26.5 26.7761 26.2761 27 26 27H11.5C11.2239 27 11 26.7761 11 26.5V15.5C11 15.2239 11.2239 15 11.5 15H26ZM26.25 14H11.25C10.5 14 10 14.5 10 15.25V26.75C10 27.5 10.5 28 11.25 28H26.25C26.875 28 27.5 27.375 27.5 26.75V22.875L32.5 27.875V14.125L27.5 19.125V15.25C27.5 14.5 27 14 26.25 14ZM27.5 21.4811V20.5189L31.5 16.6699V25.3301L27.5 21.4811Z" fill="#AEAEAE"/>
</svg>
