<svg width="40" height="40" viewBox="0 0 40 40" fill="none" xmlns="http://www.w3.org/2000/svg">
<rect width="40" height="40" rx="20" fill="#F4F4F4"/>
<path fill-rule="evenodd" clip-rule="evenodd" d="M14 28H15C15.5523 28 16 27.5523 16 27V13C16 12.4477 15.5523 12 15 12H14C13.4477 12 13 12.4477 13 13V16V24V27C13 27.5523 13.4477 28 14 28ZM12 25.7324V27C12 28.1046 12.8954 29 14 29H15C16.1046 29 17 28.1046 17 27V21H23V27C23 28.1046 23.8954 29 25 29H26C27.1046 29 28 28.1046 28 27V25.7324C28.2942 25.9026 28.6357 26 29 26C30.1046 26 31 25.1046 31 24V22H32V21V19V18H31V16C31 14.8954 30.1046 14 29 14C28.6357 14 28.2942 14.0974 28 14.2676V13C28 11.8954 27.1046 11 26 11H25C23.8954 11 23 11.8954 23 13V19H17V13C17 11.8954 16.1046 11 15 11H14C12.8954 11 12 11.8954 12 13V14.2676C11.7058 14.0974 11.3643 14 11 14C9.89543 14 9 14.8954 9 16V18H8V19V21V22H9V24C9 25.1046 9.89543 26 11 26C11.3643 26 11.7058 25.9026 12 25.7324ZM27 16V24V27C27 27.5523 26.5523 28 26 28H25C24.4477 28 24 27.5523 24 27V13C24 12.4477 24.4477 12 25 12H26C26.5523 12 27 12.4477 27 13V16ZM29 25C28.4477 25 28 24.5523 28 24V16C28 15.4477 28.4477 15 29 15C29.5523 15 30 15.4477 30 16V24C30 24.5523 29.5523 25 29 25ZM12 24V16C12 15.4477 11.5523 15 11 15C10.4477 15 10 15.4477 10 16V24C10 24.5523 10.4477 25 11 25C11.5523 25 12 24.5523 12 24Z" fill="#AEAEAE"/>
</svg>
