<svg width="40" height="40" viewBox="0 0 40 40" fill="none" xmlns="http://www.w3.org/2000/svg">
<circle cx="20" cy="20" r="20" fill="#EBF1FF"/>
<path d="M32 18V14C32 12.9 31.1 12 30 12H10C8.9 12 8.01 12.9 8.01 14V18C9.11 18 10 18.9 10 20C10 21.1 9.11 22 8 22V26C8 27.1 8.9 28 10 28H30C31.1 28 32 27.1 32 26V22C30.9 22 30 21.1 30 20C30 18.9 30.9 18 32 18ZM30 16.54C28.81 17.23 28 18.53 28 20C28 21.47 28.81 22.77 30 23.46V26H10V23.46C11.19 22.77 12 21.47 12 20C12 18.52 11.2 17.23 10.01 16.54L10 14H30V16.54Z" fill="#BFD1FF"/>
<path fill-rule="evenodd" clip-rule="evenodd" d="M23.8672 15.8789L25.2812 17.293L21.0391 21.5352L19.625 22.9492L18.2109 21.5352L16.0859 19.4141L17.5 18L19.625 20.1211L23.8672 15.8789Z" fill="#BFD1FF"/>
</svg>
