<svg width="40" height="40" viewBox="0 0 40 40" fill="none" xmlns="http://www.w3.org/2000/svg">
<circle cx="20" cy="20" r="20" fill="#E7E7E7"/>
<path fill-rule="evenodd" clip-rule="evenodd" d="M32 14V18C30.9 18 30 18.9 30 20C30 21.1 30.9 22 32 22V26C32 27.1 31.1 28 30 28H10C8.9 28 8 27.1 8 26V22C9.11 22 10 21.1 10 20C10 18.9 9.11 18 8.01 18V14C8.01 12.9 8.9 12 10 12H30C31.1 12 32 12.9 32 14ZM28 20C28 18.53 28.81 17.23 30 16.54V14H10L10.01 16.54C11.2 17.23 12 18.52 12 20C12 21.47 11.19 22.77 10 23.46V26H30V23.46C28.81 22.77 28 21.47 28 20ZM17.7722 16.5037L16.5 17.7759L18.7278 20.0037L16.5028 22.2287L17.775 23.5009L20 21.2759L22.225 23.5009L23.4972 22.2287L21.2722 20.0037L23.5 17.7759L22.2278 16.5037L20 18.7314L17.7722 16.5037Z" fill="#F4F4F4"/>
</svg>
